<svg height="492pt" viewBox="-47 0 492 492.00035" width="492pt" xmlns="http://www.w3.org/2000/svg"><path d="m382.589844 245.859375c7.011718 14.191406 10.40625 29.890625 9.890625 45.710937l-50.398438 12.539063c-15.65625-16.921875-40.738281-21.203125-61.117187-10.429687-20.382813 10.777343-30.96875 33.910156-25.800782 56.378906 5.171876 22.46875 24.804688 38.648437 47.847657 39.433594v.039062c-1.71875 20.628906-18.960938 36.5-39.660157 36.507812h-.140624c-11.761719.042969-28.472657.121094-30.089844.171876-6.183594.179687-12.171875-2.148438-16.609375-6.457032s-6.941407-10.230468-6.941407-16.414062v-33.800782h-30.359374c-1.507813.003907-2.917969-.738281-3.769532-1.980468-.855468-1.238282-1.042968-2.820313-.5-4.226563l7.207032-18.902343 10.921874-28.609376.898438.339844h22.671875c10.121094 0 18.324219-8.203125 18.324219-18.324218 0-10.121094-8.203125-18.324219-18.324219-18.324219h-18.699219l-1.902344-.320313c1.394532-8.628906 3.898438-17.042968 7.449219-25.03125l.621094.28125h20.300781c16.273438-.003906 29.460938-13.199218 29.460938-29.472656v-22.328125c14.054687-6.613281 29.425781-9.945313 44.960937-9.75v18.328125c.007813 19.347656 15.691407 35.03125 35.039063 35.042969h47.898437zm0 0" fill="#e48e66"/><path d="m306.671875 459.351562c5.523437.003907 10.007813-4.472656 10.007813-9.996093.003906-5.527344-4.476563-10.007813-10.003907-10.003907-5.523437 0-10 4.484376-9.996093 10.007813.003906 5.519531 4.472656 9.988281 9.992187 9.992187zm37.726563 26.648438h-66.796876v-48.789062c-1.636718-6.546876-7.503906-11.144532-14.25-11.171876 20.699219-.007812 37.941407-15.878906 39.660157-36.507812v-.039062c.578125.027343 1.160156.039062 1.738281.039062 20.21875 0 38.515625-11.972656 46.613281-30.496094 8.097657-18.527344 4.453125-40.089844-9.28125-54.925781l50.398438-12.539063c-.5 14.335938-4.230469 28.375-10.910157 41.070313 0 0-11.019531 27.21875-12.089843 38.71875-3.628907 39.011719 0 114.640625 0 114.640625zm9.960937-39.410156c0-5.515625-4.472656-9.988282-9.988281-9.988282-5.519532 0-9.992188 4.472657-9.992188 9.988282 0 5.519531 4.472656 9.992187 9.992188 9.992187 5.515625-.007812 9.984375-4.476562 9.988281-9.992187zm0 0" fill="#6fe3ff"/><g fill="#f8ec7d"><path d="m382.589844 245.859375-.820313.402344h-47.898437c-19.351563-.003907-35.035156-15.691407-35.039063-35.042969v-18.328125c.886719.007813 1.777344.03125 2.65625.070313 37.113281 1.328124 66.550781 23.308593 81.101563 52.898437zm0 0"/><path d="m344.371094 436.589844c5.523437-.003906 10.003906 4.46875 10.007812 9.992187.003906 5.527344-4.472656 10.007813-9.996094 10.007813-5.523437.003906-10.003906-4.476563-10.003906-10 0-5.519532 4.472656-9.992188 9.992188-10zm0 0"/><path d="m348.75 150.550781h-81.191406l65.363281-65.359375.128906-.0625c10.339844 20.257813 15.71875 42.679688 15.699219 65.421875zm0 0"/><path d="m324.148438 367.261719c14.164062-9.628907 19.144531-28.171875 11.722656-43.601563-.804688-1.664062-1.738282-3.261718-2.789063-4.78125-3.050781-4.375-7.078125-7.976562-11.761719-10.527344-2.804687-1.53125-5.804687-2.667968-8.921874-3.382812-14.777344-3.355469-30.019532 3.308594-37.589844 16.441406-7.566406 13.132813-5.691406 29.664063 4.625 40.765625 10.316406 11.105469 26.664062 14.1875 40.316406 7.605469 1.523438-.734375 2.988281-1.574219 4.390625-2.519531zm9.152343 13.5c-8.417969 5.730469-18.367187 8.785156-28.550781 8.769531-.578125 0-1.160156-.011719-1.738281-.039062-24.992188-.863282-45.648438-19.769532-48.71875-44.585938-3.066407-24.816406 12.359375-48.179688 36.386719-55.105469 24.027343-6.925781 49.527343 4.644531 60.136718 27.289063 10.609375 22.640625 3.183594 49.640625-17.515625 63.671875zm0 0"/><path d="m314.050781 352.378906c6.796875-4.601562 9.207031-13.484375 5.664063-20.890625-3.542969-7.402343-11.96875-11.101562-19.820313-8.699219-7.847656 2.40625-12.757812 10.191407-11.542969 18.3125 1.214844 8.117188 8.1875 14.125 16.398438 14.128907 3.316406 0 6.554688-.992188 9.300781-2.851563zm10.089844 14.882813c-1.402344.945312-2.867187 1.785156-4.390625 2.519531-16.535156 7.957031-36.410156 1.59375-45.246094-14.488281-8.835937-16.085938-3.550781-36.273438 12.035156-45.960938 15.585938-9.6875 36.027344-5.496093 46.542969 9.546875 1.050781 1.519532 1.984375 3.117188 2.789063 4.78125 7.421875 15.429688 2.441406 33.972656-11.722656 43.601563zm0 0"/></g><path d="m333.050781 85.128906-.128906.0625-65.363281 65.359375h-63.367188v-.449219l102.019532-102.019531.019531-.03125c.078125.070313.160156.148438.238281.230469 10.691406 10.855469 19.652344 23.28125 26.582031 36.847656zm0 0" fill="#6fe3ff"/><path d="m314.050781 352.378906c-6.300781 4.273438-14.703125 3.707032-20.371093-1.375-5.667969-5.082031-7.144532-13.371094-3.578126-20.101562 3.5625-6.726563 11.253907-10.160156 18.640626-8.324219 7.386718 1.835937 12.578124 8.46875 12.578124 16.082031.015626 5.5-2.710937 10.644532-7.269531 13.71875zm0 0" fill="#f8ec7d"/><path d="m306.671875 439.359375c5.523437-.003906 10.003906 4.46875 10.007813 9.996094.003906 5.523437-4.472657 10.003906-9.996094 10.003906-5.523438.003906-10.003906-4.476563-10.003906-10 0-5.519531 4.472656-9.992187 9.992187-10zm0 0" fill="#f8ec7d"/><path d="m306.230469 48.050781-.019531.03125-102.019532 102.019531v-63.820312l64.859375-64.859375c13.691407 6.90625 26.234375 15.886719 37.179688 26.628906zm0 0" fill="#f8ec7d"/><path d="m269.050781 21.421875-64.859375 64.859375v-80.28125c22.53125-.019531 44.75 5.261719 64.859375 15.421875zm0 0" fill="#6fe3ff"/><path d="m253.871094 202.640625v22.328125c.007812 16.277344-13.1875 29.472656-29.460938 29.472656h-20.300781l-.621094-.28125c9.859375-22.191406 27.210938-40.203125 49.023438-50.878906.449219-.222656.898437-.429688 1.359375-.640625zm0 0" fill="#f8ec7d"/><path d="m150.558594 203.28125h101.953125c-21.8125 10.675781-39.164063 28.6875-49.023438 50.878906-5.042969 11.390625-7.96875 23.601563-8.636719 36.039063-.113281 1.871093-.160156 21.382812-.160156 21.382812l-1.621094 4.238281-10.921874 28.609376c-10.375 2.28125-20.964844 3.421874-31.589844 3.410156-79.546875 0-144.558594-64.550782-144.558594-144.558594 0-40 16.359375-75.910156 42.269531-102.269531 27.074219-27.199219 63.914063-42.425781 102.289063-42.28125zm0 0" fill="#6fe3ff"/><path d="m216.640625 279.511719c10.121094 0 18.324219 8.203125 18.324219 18.324219 0 10.121093-8.203125 18.324218-18.324219 18.324218h-22.671875l-.898438-.339844 1.621094-4.238281s.046875-19.511719.160156-21.382812c.195313-3.6875.59375-7.363281 1.1875-11.007813l1.902344.320313zm0 0" fill="#f8ec7d"/><path d="m348.75 156.550781c3.3125 0 6-2.6875 6-6 .054688-23.695312-5.554688-47.054687-16.355469-68.144531-7.214843-14.136719-16.554687-27.078125-27.699219-38.382812-.113281-.113282-.230468-.226563-.347656-.335938-11.367187-11.140625-24.386718-20.460938-38.601562-27.625-20.933594-10.609375-44.085938-16.1132812-67.554688-16.0625-3.316406 0-6 2.6875-6 6v144.550781c0 3.3125 2.683594 6 6 6zm-78.585938-127.757812c9.882813 5.359375 19.09375 11.871093 27.445313 19.398437l-87.417969 87.421875v-46.847656zm72.460938 115.757812h-60.578125l49.199219-49.199219c6.820312 15.546876 10.679687 32.234376 11.378906 49.199219zm-16.988281-60.5625-60.5625 60.5625h-46.847657l87.898438-87.902343c7.558594 8.316406 14.105469 17.492187 19.511719 27.339843zm-66.886719-60.753906-48.558594 48.566406v-59.675781c16.730469.691406 33.191406 4.457031 48.558594 11.109375zm0 0" fill="#63316d"/><path d="m353.871094 203.84375c-15.4375-10.40625-33.492188-16.257812-52.101563-16.878906-.949219-.042969-1.90625-.0625-2.867187-.074219-.015625 0-.035156 0-.050782 0h-.027343c-16.390625-.210937-32.609375 3.308594-47.4375 10.292969-.070313.03125-.136719.066406-.207031.097656h-94.621094v-138.550781c0-3.3125-2.683594-6-6-6-39.980469-.136719-78.359375 15.734375-106.566406 44.070312-28.367188 28.863281-43.992188 66.679688-43.992188 106.480469 0 83.019531 67.542969 150.558594 150.558594 150.558594 7.429687 0 14.851562-.539063 22.203125-1.613282l-3.417969 8.957032c-1.25 3.25-.816406 6.90625 1.15625 9.777344 1.972656 2.867187 5.234375 4.582031 8.714844 4.578124h24.355468v27.800782c-.027343 7.820312 3.140626 15.308594 8.773438 20.730468 5.609375 5.421876 13.164062 8.355469 20.960938 8.136719 1.40625-.042969 16.898437-.121093 29.925781-.167969h.09375c3.761719.011719 7.097656 2.425782 8.277343 6v47.960938c0 3.3125 2.683594 6 6 6h91.878907c1.640625 0 3.210937-.671875 4.34375-1.859375 1.132812-1.1875 1.726562-2.789063 1.648437-4.429687-.035156-.75-3.566406-75.65625-.019531-113.796876.800781-8.601562 8.523437-29.191406 11.574219-36.765624 7.023437-13.414063 10.9375-28.242188 11.449218-43.375 1.101563-35-15.714843-68.144532-44.605468-87.929688zm18.757812 36.417969h-38.757812c-7.699219-.007813-15.082032-3.066407-20.53125-8.507813-5.429688-5.457031-8.488282-12.835937-8.507813-20.535156v-12.058594c27.90625 1.953125 53.152344 17.257813 67.792969 41.101563zm-171.785156 50.257812c.085938-1.667969.222656-3.339843.398438-5.007812h15.398437c6.808594 0 12.328125 5.515625 12.328125 12.324219 0 6.804687-5.519531 12.324218-12.328125 12.324218h-15.945313c.023438-8.925781.082032-18.472656.148438-19.640625zm-50.285156 51.320313c-76.398438 0-138.558594-62.15625-138.558594-138.558594 0-36.636719 14.398438-71.460938 40.511719-98.027344 24.488281-24.597656 57.367187-39.027344 92.046875-40.402344v138.429688c0 3.3125 2.6875 6 6 6h80.957031c-14.550781 11.113281-26.074219 25.707031-33.507813 42.441406-5.335937 12.046875-8.4375 24.96875-9.148437 38.125-.097656 1.777344-.152344 15.746094-.167969 20.617188l-10.972656 28.753906c-8.945312 1.746094-18.042969 2.625-27.160156 2.621094zm97.3125-129.210938v12.339844c.003906 12.960938-10.5 23.472656-23.460938 23.472656h-11.339844c8.289063-14.761718 20.285157-27.105468 34.800782-35.8125zm15.339844 207.410156v6l-.023438-6c-9.039062.03125-28.324219.117188-30.257812.175782-4.558594.128906-8.972657-1.59375-12.242188-4.769532-3.269531-3.179687-5.117188-7.546874-5.117188-12.105468v-33.800782c0-3.3125-2.6875-6-6-6h-28.289062l15.789062-41.378906h19.570313c13.433594 0 24.324219-10.890625 24.324219-24.324218 0-13.433594-10.890625-24.324219-24.324219-24.324219h-13.351563c1.046876-4.449219 2.414063-8.816407 4.085938-13.070313h17.035156c19.585938-.003906 35.464844-15.882812 35.460938-35.472656v-18.429688c10.453125-4.445312 21.613281-6.996093 32.960937-7.535156v12.214844c.027344 10.886719 4.351563 21.316406 12.03125 29.03125 7.699219 7.683594 18.128907 12.003906 29.007813 12.011719h45.066406c4.78125 10.921875 7.355469 22.6875 7.574219 34.609375l-42.582031 10.597656c-17.734376-16.878906-44.285157-20.511719-65.898438-9.011719-21.617188 11.496094-33.445312 35.539063-29.363281 59.679688s23.160156 42.960937 47.351562 46.710937c-3.972656 14.796875-17.347656 25.109375-32.667969 25.191406zm71.460937-47.957031-2.445313-3.601562c.769532-.710938 1.523438-1.4375 2.234376-2.199219 2.253906-2.429688 2.113281-6.226562-.316407-8.480469-2.433593-2.257812-6.230469-2.113281-8.484375.316407-.089844.101562-.1875.191406-.28125.289062l-3.457031-5.101562c7.34375-8.609376 7.191406-21.320313-.355469-29.753907-7.550781-8.429687-20.167968-9.984375-29.535156-3.632812-9.367188 6.351562-12.59375 18.648437-7.554688 28.78125 5.039063 10.132812 16.796876 14.980469 27.511719 11.339843l3.453125 5.09375c-3.242187 1.324219-6.703125 2.035157-10.207031 2.089844-3.3125.03125-5.976563 2.738282-5.949219 6.050782.027344 3.316406 2.738282 5.980468 6.050782 5.949218h.101562c5.839844-.089844 11.59375-1.457031 16.855469-4l2.453125 3.617188c-6.210938 3.101562-13.058594 4.710937-20 4.699218-.476563 0-.953125-.007812-1.433594-.03125h-.105469c-20.320312-.695312-37.632812-14.96875-42.1875-34.78125-4.558593-19.816406 4.777344-40.21875 22.753907-49.71875 17.972656-9.503906 40.089843-5.730468 53.898437 9.191407 8.171875 8.824219 12.453125 20.558593 11.890625 32.570312-.566406 12.011719-5.929688 23.292969-14.890625 31.3125zm-20.070313-29.589843-4.882812-7.199219c-1.859375-2.742188-5.589844-3.460938-8.332031-1.601563-2.746094 1.863282-3.460938 5.59375-1.601563 8.335938l4.882813 7.199218c-4.628907-.035156-8.699219-3.078124-10.039063-7.507812s.355469-9.21875 4.1875-11.816406c3.832032-2.597656 8.90625-2.398438 12.527344.488281 3.617188 2.886719 4.9375 7.789063 3.257812 12.105469zm-11.921874 106.867187c0-2.203125 1.785156-3.988281 3.992187-3.988281 2.203125 0 3.988281 1.785156 3.988281 3.988281s-1.785156 3.992187-3.988281 3.992187c-2.203125-.007812-3.984375-1.789062-3.992187-3.992187zm73.328124-118.96875c-1.160156 2.867187-11.382812 28.382813-12.5 40.414063-3.054687 32.84375-1.082031 90.117187-.296874 109.199218h-12.8125v-6.691406c0-3.3125-2.683594-6-6-6-3.3125 0-6 2.6875-6 6v6.6875h-25.726563v-15.828125c7.089844-2.871094 11.15625-10.367187 9.695313-17.878906-1.464844-7.511719-8.042969-12.933594-15.695313-12.933594-7.65625 0-14.234375 5.421875-15.695313 12.933594-1.464843 7.511719 2.601563 15.007812 9.695313 17.878906v15.828125h-17.070313v-42.789062c0-.488282-.0625-.976563-.179687-1.449219-.625-2.507813-1.71875-4.875-3.21875-6.980469 14.320313-5.746094 24.824219-18.265625 28-33.363281 8.160156-.480469 16.117187-2.726563 23.324219-6.585938l6.871094 10.132813v32.792968c-7.097657 2.859376-11.171876 10.34375-9.722657 17.859376 1.449219 7.511718 8.015625 12.945312 15.667969 12.957031 7.648438.015625 14.238281-5.394531 15.714844-12.902344 1.476562-7.507813-2.574219-15.007813-9.660156-17.890625v-34.660156c0-1.203125-.359376-2.375-1.035157-3.371094l-7.917969-11.675781c21.886719-18.46875 26.605469-50.34375 11.007813-74.363281l33.390625-8.304688c-1.347656 10.644531-4.597656 20.960938-9.59375 30.457031-.089844.171875-.167969.347657-.242188.527344zm-31.636718 112.199219c2.210937-.003906 4.003906 1.785156 4.007812 3.992187.003906 2.210938-1.785156 4.007813-3.996094 4.007813-2.210937.003906-4.003906-1.789063-4.003906-4 0-2.203125 1.785156-3.992188 3.992188-4zm0 0" fill="#63316d"/><path d="m275.863281 318.773438c-3.011719-1.382813-6.574219-.0625-7.957031 2.949218-2.4375 5.324219-3.707031 11.113282-3.71875 16.96875.003906 1.988282.148438 3.976563.441406 5.941406.488282 3.277344 3.542969 5.539063 6.820313 5.050782 3.277343-.488282 5.539062-3.542969 5.050781-6.820313-.207031-1.378906-.3125-2.773437-.3125-4.171875.011719-4.128906.902344-8.207031 2.625-11.960937 1.382812-3.011719.0625-6.574219-2.949219-7.957031zm0 0" fill="#63316d"/><path d="m324.195312 303.085938c-2.367187-1.296876-4.863281-2.351563-7.441406-3.152344-3.160156-.96875-6.511718.800781-7.492187 3.957031-.976563 3.15625.777343 6.511719 3.929687 7.503906 1.824219.566407 3.585938 1.308594 5.257813 2.226563 3.175781 1.722656 5.992187 4.042968 8.292969 6.832031 2.113281 2.550781 5.894531 2.910156 8.449218.796875 2.554688-2.113281 2.910156-5.894531.796875-8.449219-3.273437-3.960937-7.273437-7.261719-11.792969-9.714843zm0 0" fill="#63316d"/></svg>