<svg height="512pt" viewBox="0 -7 512.002 512" width="512pt" xmlns="http://www.w3.org/2000/svg"><path d="m25.578125 409.074219h39.929687v81.230469h-39.929687zm0 0" fill="#48ffe0"/><path d="m446.492188 409.074219h39.929687v81.230469h-39.929687zm0 0" fill="#48ffe0"/><path d="m416.234375 327.933594h33.320313v28.78125h-33.320313zm0 0" fill="#76ffd9"/><path d="m62.445312 327.933594h33.320313v28.78125h-33.320313zm0 0" fill="#76ffd9"/><path d="m90.710938 320.375c0-67.90625 74.003906-122.953125 165.289062-122.953125s165.289062 55.046875 165.289062 122.953125v83.347656c0 11.316406-9.175781 20.496094-20.492187 20.496094h-289.59375c-11.316406 0-20.492187-9.179688-20.492187-20.496094zm0 0" fill="#fff"/><path d="m391.15625 490.304688h-270.3125v-217.179688c0-47.703125 38.667969-86.371094 86.371094-86.371094h97.570312c47.703125 0 86.371094 38.667969 86.371094 86.371094zm0 0" fill="#fff"/><path d="m338.8125 296.625c0-25.394531-37.078125-45.984375-82.8125-45.984375s-82.8125 20.589844-82.8125 45.984375c0 25.398438 37.078125 45.984375 82.8125 45.984375s82.8125-20.585937 82.8125-45.984375zm0 0" fill="#48ffe0"/><path d="m317.269531 284.664062c0-18.789062-27.429687-34.023437-61.269531-34.023437s-61.269531 15.234375-61.269531 34.023437c0 18.792969 27.429687 34.023438 61.269531 34.023438s61.269531-15.230469 61.269531-34.023438zm0 0" fill="#ffc843"/><path d="m256 295.089844c-14.078125 0-25.488281-11.414063-25.488281-25.492188v-98.855468h50.976562v98.855468c0 14.078125-11.410156 25.492188-25.488281 25.492188zm0 0" fill="#fff"/><path d="m370.621094 127.796875c0 61.886719-50.171875 112.058594-112.058594 112.058594s-112.054688-50.171875-112.054688-112.058594 50.167969-112.058594 112.054688-112.058594 112.058594 50.171875 112.058594 112.058594zm0 0" fill="#fff"/><path d="m370.621094 127.792969c0 61.890625-50.171875 112.058593-112.0625 112.058593-3.277344 0-6.519532-.136718-9.730469-.429687 57.332031-4.917969 102.320313-53.019531 102.320313-111.628906 0-58.601563-44.988282-106.699219-102.320313-111.621094 3.210937-.289063 6.453125-.429687 9.730469-.429687 61.890625 0 112.0625 50.171874 112.0625 112.050781zm0 0" fill="#d9dfe9"/><path d="m356.679688 181.933594c-19.078126 34.53125-55.871094 57.917968-98.121094 57.917968-3.277344 0-6.519532-.136718-9.730469-.417968-37.929687-3.261719-70.46875-25.429688-88.128906-57.039063h49.390625l23.230468-23.230469h50.949219l22.761719 22.769532zm0 0" fill="#76ffd9"/><path d="m356.679688 181.933594c-19.078126 34.53125-55.871094 57.917968-98.121094 57.917968-3.277344 0-6.519532-.136718-9.730469-.417968v-.011719c38.121094-3.269531 70.792969-25.640625 88.390625-57.488281zm0 0" fill="#5de0bf"/><path d="m258.5625 127.242188c-22.683594 0-41.074219-18.390626-41.074219-41.074219v-68.417969c0-5.660156 4.589844-10.246094 10.246094-10.246094h61.65625c5.660156 0 10.246094 4.585938 10.246094 10.246094v68.417969c0 22.683593-18.390625 41.074219-41.074219 41.074219zm0 0" fill="#ffc843"/><path d="m246.671875 7.5v28.484375c0 6.566406 5.320313 11.890625 11.890625 11.890625 6.566406 0 11.890625-5.324219 11.890625-11.890625v-28.484375" fill="#fff"/><path d="m494.253906 424.21875h-28.695312c-11.316406 0-20.492188-9.179688-20.492188-20.496094v-129.757812c0-5.65625 4.585938-10.246094 10.246094-10.246094h11.890625c20.597656 0 37.296875 16.699219 37.296875 37.296875v112.953125c0 5.660156-4.589844 10.25-10.246094 10.25zm0 0" fill="#fff"/><path d="m504.5 301.011719v112.960937c0 5.660156-4.589844 10.242188-10.25 10.242188h-16.898438c5.648438 0 10.238282-4.582032 10.238282-10.242188v-112.960937c0-19.488281-14.941406-35.480469-33.988282-37.140625.558594-.097656 1.128907-.148438 1.707032-.148438h11.890625c20.601562 0 37.300781 16.691406 37.300781 37.289063zm0 0" fill="#d9dfe9"/><path d="m504.5 304.671875v75.359375c-6.078125 0-11.820312-1.4375-16.910156-4-12.320313-6.199219-20.769532-18.949219-20.769532-33.679688 0-14.730468 8.449219-27.480468 20.769532-33.679687 5.089844-2.558594 10.832031-4 16.910156-4zm0 0" fill="#48ffe0"/><path d="m504.5 304.671875v75.359375c-6.078125 0-11.820312-1.4375-16.910156-4v-67.359375c5.089844-2.558594 10.832031-4 16.910156-4zm0 0" fill="#5de0bf"/><path d="m17.746094 424.21875h28.695312c11.316406 0 20.492188-9.179688 20.492188-20.496094v-129.757812c0-5.65625-4.585938-10.246094-10.246094-10.246094h-11.890625c-20.597656 0-37.296875 16.699219-37.296875 37.296875v112.953125c0 5.660156 4.589844 10.25 10.246094 10.25zm0 0" fill="#fff"/><path d="m66.941406 273.964844v129.757812c0 11.320313-9.179687 20.492188-20.5 20.492188h-16.910156c11.320312 0 20.5-9.171875 20.5-20.492188v-129.757812c0-5.082032-3.691406-9.292969-8.542969-10.09375 1.089844-.097656 2.191407-.148438 3.3125-.148438h11.890625c5.660156 0 10.25 4.582032 10.25 10.242188zm0 0" fill="#d9dfe9"/><path d="m324.292969 108.519531c-12.140625 0-22.015625 9.878907-22.015625 22.019531 0 12.140626 9.875 22.015626 22.015625 22.015626s22.019531-9.875 22.019531-22.015626c0-12.140624-9.878906-22.019531-22.019531-22.019531zm0 0" fill="#76ffd9"/><path d="m192.832031 108.519531c-12.140625 0-22.019531 9.878907-22.019531 22.019531 0 12.140626 9.878906 22.015626 22.019531 22.015626s22.015625-9.875 22.015625-22.015626c0-12.140624-9.875-22.019531-22.015625-22.019531zm0 0" fill="#76ffd9"/><path d="m467.203125 256.21875h-11.890625c-9.785156 0-17.746094 7.960938-17.746094 17.746094v26.277344h-10.796875c-4.378906-21.613282-15.820312-41.882813-33.75-59.460938-.070312-.070312-.148437-.128906-.21875-.195312-6.769531-18.257813-19.128906-34.21875-35.589843-45.328126 13.183593-19.214843 20.90625-42.449218 20.90625-67.460937 0-22.949219-6.519532-45.246094-18.859376-64.480469-2.238281-3.484375-6.878906-4.496094-10.363281-2.261718-3.484375 2.238281-4.5 6.875-2.261719 10.363281 10.785157 16.808593 16.484376 36.304687 16.484376 56.378906 0 16.75-3.964844 32.585937-10.996094 46.632813l-9.15625 15c-13.914063 19-34.074219 33.148437-57.433594 39.390624v-16.640624c0-4.144532-3.355469-7.5-7.5-7.5s-7.5 3.355468-7.5 7.5v19.484374c-1.480469.171876-2.972656.3125-4.46875.417969v-26.050781c0-4.140625-3.359375-7.5-7.5-7.5-4.144531 0-7.5 3.359375-7.5 7.5v26.050781c-1.5-.105469-2.992188-.246093-4.472656-.417969v-19.484374c0-4.140626-3.355469-7.5-7.5-7.5-4.140625 0-7.5 3.359374-7.5 7.5v16.640624c-23.167969-6.191406-43.195313-20.160156-57.09375-38.925781l-9.265625-15c-7.175781-14.164062-11.226563-30.164062-11.226563-47.097656 0-39.257813 21.695313-74.652344 55.984375-92.605469v50.976563c0 26.785156 21.789063 48.574219 48.574219 48.574219 26.78125 0 48.574219-21.789063 48.574219-48.574219v-50.964844c6.410156 3.371094 12.472656 7.394531 18.089843 12.046875 1.402344 1.160156 3.097657 1.726562 4.78125 1.726562 2.15625 0 4.296876-.925781 5.777344-2.714843 2.644532-3.1875 2.203125-7.917969-.984375-10.5625-8.425781-6.980469-17.722656-12.734375-27.664062-17.160157v-.789062c0-9.785156-7.960938-17.75-17.75-17.75h-61.652344c-9.785156 0-17.75 7.960938-17.75 17.75v.792969c-43.214844 19.210937-70.980469 61.761719-70.980469 109.253906 0 24.019531 7.128906 46.40625 19.367188 65.164063-18.3125 11.167968-31.984375 28.058593-39.21875 47.65625-18.03125 17.617187-29.539063 37.933593-33.925782 59.625h-10.792968v-26.277344c0-9.785156-7.960938-17.746094-17.746094-17.746094h-11.890625c-24.703125 0-44.796875 20.09375-44.796875 44.792969v42.628906c0 4.140625 3.359375 7.5 7.5 7.5s7.5-3.359375 7.5-7.5v-42.628906c0-16.425781 13.367188-29.792969 29.796875-29.792969h11.890625c1.515625 0 2.75 1.230469 2.75 2.746094v129.757812c0 7.164063-5.832031 12.996094-12.996094 12.996094h-28.695312c-1.511719 0-2.746094-1.234375-2.746094-2.75v-35.804688c0-4.140624-3.359375-7.5-7.5-7.5s-7.5 3.359376-7.5 7.5v35.804688c0 9.789062 7.960938 17.75 17.746094 17.75h.332031v58.585938c0 4.140624 3.355469 7.5 7.5 7.5 4.140625 0 7.5-3.359376 7.5-7.5v-3.644532c0-6.875 5.589844-12.464844 12.464844-12.464844s12.464843 5.589844 12.464843 12.464844v3.644532c0 4.140624 3.359376 7.5 7.5 7.5 4.140626 0 7.5-3.359376 7.5-7.5v-77.777344c.214844-.636719.40625-1.285156.574219-1.945313h10.480469c3.070312 12.132813 14.074219 21.132813 27.140625 21.132813h2.140625v58.585937c0 4.144531 3.355469 7.5 7.5 7.5 4.140625 0 7.5-3.355469 7.5-7.5v-98.398437c0-4.140625-3.359375-7.5-7.5-7.5-4.144531 0-7.5 3.359375-7.5 7.5v24.8125h-2.140625c-7.164063 0-12.992187-5.828125-12.992187-12.992188v-83.347656c0-17.328125 5.183593-34.070312 15.167968-49.390625-.015625.710937-.035156 1.421875-.035156 2.136719v81.601562c0 4.140625 3.355469 7.5 7.5 7.5 4.140625 0 7.5-3.359375 7.5-7.5v-81.601562c0-28.085938 14.894531-53.9375 39.039062-68.085938 2.511719 2.957032 5.160157 5.789063 7.941407 8.492188-20.914063 11.125-34.390625 33.019531-34.390625 57.226562v219.546875c0 4.144531 3.355468 7.5 7.5 7.5 4.140625 0 7.5-3.355469 7.5-7.5v-219.546875c0-20.683594 12.808594-39.167968 32.039062-46.527344 10.511719 7.714844 22.320313 13.761719 35.039063 17.730469v4.777344c-34.957031 7.902344-57.320313 27.230469-57.320313 49.890625 0 29.992188 39.667969 53.484375 90.3125 53.484375 50.640625 0 90.308594-23.492187 90.308594-53.484375 0-22.675781-22.359375-41.988281-57.320312-49.890625v-3.308594c13.902343-3.660156 26.820312-9.769531 38.265624-17.832031 17.5625 8.183594 28.8125 25.71875 28.8125 45.164062v219.546876c0 4.140624 3.355469 7.5 7.5 7.5 4.144532 0 7.5-3.359376 7.5-7.5v-219.550782c0-22.894531-11.984374-43.75-31.191406-55.398437 2.820313-2.621094 5.511719-5.375 8.066406-8.25 22.144532 14.511719 35.714844 39.375 35.714844 66.019531v217.179688c0 4.140624 3.355469 7.5 7.5 7.5 4.140625 0 7.5-3.359376 7.5-7.5v-58.585938h2.136719c13.070313 0 24.074219-9.003906 27.140625-21.132812h10.484375c.167969.65625.359375 1.304687.570313 1.941406v77.777344c0 4.140624 3.359374 7.5 7.5 7.5 4.144531 0 7.5-3.359376 7.5-7.5v-3.644532c0-6.875 5.59375-12.464844 12.46875-12.464844s12.464843 5.59375 12.464843 12.464844v3.644532c0 4.140624 3.355469 7.5 7.5 7.5s7.5-3.359376 7.5-7.5v-58.585938h.328125c9.785156 0 17.75-7.960938 17.75-17.75v-112.957031c-.003906-24.699219-20.097656-44.792969-44.800781-44.792969zm-242.214844-238.46875c0-1.515625 1.230469-2.75 2.746094-2.75h61.65625c1.515625 0 2.746094 1.234375 2.746094 2.75v68.417969c0 18.515625-15.0625 33.574219-33.574219 33.574219s-33.574219-15.0625-33.574219-33.574219zm-179.445312 441.445312c-4.445313 0-8.640625 1.066407-12.355469 2.945313.777344-6.132813 6.015625-10.894531 12.355469-10.894531 6.339843 0 11.578125 4.761718 12.355469 10.898437-3.71875-1.882812-7.914063-2.949219-12.355469-2.949219zm12.464843-19.945312c-3.742187-1.914062-7.980468-3.003906-12.464843-3.003906-4.488281 0-8.722657 1.089844-12.464844 3.003906v-7.53125h13.363281c4.121094 0 8.039063-.90625 11.566406-2.515625zm25.203126-43.667969h-8.777344v-9.59375h8.777344zm0-24.59375h-8.777344v-6.773437h8.777344zm0-21.773437h-8.777344v-13.78125h8.777344zm0-28.839844v.0625h-8.777344v-5.191406h8.910156c-.085938 1.703125-.132812 3.414062-.132812 5.128906zm175.351562-73.019531c4.9375 0 9.804688-.308594 14.585938-.890625-2.308594 7.273437-9.121094 12.558594-17.148438 12.558594-8.308594 0-15.300781-5.667969-17.359375-13.339844 6.480469 1.09375 13.136719 1.671875 19.921875 1.671875zm-20.550781 21.3125c5.175781 3.382812 11.355469 5.355469 17.988281 5.355469s12.8125-1.972657 17.988281-5.355469v.929687c0 9.921875-8.070312 17.992188-17.988281 17.992188s-17.988281-8.070313-17.988281-17.992188zm86.515625 12.449219c4.363281 4.851562 6.78125 10.136718 6.78125 15.507812 0 9.4375-7.242188 18.65625-20.394532 25.960938-14.546874 8.074218-34.046874 12.523437-54.914062 12.523437s-40.371094-4.449219-54.914062-12.523437c-13.152344-7.304688-20.398438-16.523438-20.398438-25.960938 0-5.363281 2.421875-10.644531 6.785156-15.496094-.15625 1.167969-.246094 2.347656-.246094 3.535156 0 23.285157 30.210938 41.523438 68.773438 41.523438s68.769531-18.238281 68.769531-41.523438c0-1.191406-.085937-2.375-.242187-3.546874zm-14.757813 3.546874c0 15.632813-28.335937 26.523438-53.769531 26.523438s-53.769531-10.890625-53.769531-26.523438c0-7.710937 8.089843-15.550781 20.78125-20.652343v5.585937c0 18.191406 14.796875 32.992188 32.988281 32.992188 18.1875 0 32.988281-14.800782 32.988281-32.992188v-5.585937c12.695313 5.101562 20.78125 12.933593 20.78125 20.652343zm104.019531 119.058594c0 7.164063-5.828124 12.996094-12.992187 12.996094h-2.140625v-143.59375c0-.710938-.019531-1.421875-.035156-2.128906 9.980468 15.324218 15.167968 32.066406 15.167968 49.378906zm23.777344-8.140625h-8.777344v-9.59375h8.777344zm0-24.59375h-8.777344v-6.773437h8.777344zm0-21.773437h-8.777344v-13.78125h8.777344zm0-28.78125h-8.777344v-.058594c0-1.714844-.046874-3.425781-.132812-5.132812h8.910156zm28.890625 138.761718c-4.441406 0-8.636719 1.066407-12.355469 2.945313.777344-6.132813 6.015626-10.894531 12.355469-10.894531 6.34375 0 11.582031 4.761718 12.355469 10.894531-3.714844-1.878906-7.910156-2.945313-12.355469-2.945313zm12.46875-19.945312c-3.746093-1.914062-7.980469-3.003906-12.46875-3.003906-4.484375 0-8.722656 1.089844-12.464843 3.003906v-10.046875c3.527343 1.609375 7.441406 2.511719 11.566406 2.511719h13.363281v7.535156zm18.074219-25.28125c0 1.515625-1.230469 2.75-2.746094 2.75h-28.695312c-7.164063 0-12.992188-5.832031-12.992188-12.996094v-129.757812c0-1.515625 1.230469-2.746094 2.746094-2.746094h11.894531c15.355469 0 28.03125 11.675781 29.621094 26.617188l.171875 89.066406zm0 0" fill="#474d54"/><g fill="#c2c7d0"><path d="m194.375 377.867188h-15c-4.140625 0-7.5 3.359374-7.5 7.5 0 4.144531 3.359375 7.5 7.5 7.5h15c4.144531 0 7.5-3.355469 7.5-7.5 0-4.140626-3.355469-7.5-7.5-7.5zm0 0"/><path d="m194.375 401.574219h-15c-4.140625 0-7.5 3.359375-7.5 7.5 0 4.144531 3.359375 7.5 7.5 7.5h15c4.144531 0 7.5-3.355469 7.5-7.5 0-4.140625-3.355469-7.5-7.5-7.5zm0 0"/><path d="m194.375 425.285156h-15c-4.140625 0-7.5 3.359375-7.5 7.5s3.359375 7.5 7.5 7.5h15c4.144531 0 7.5-3.359375 7.5-7.5s-3.355469-7.5-7.5-7.5zm0 0"/><path d="m332.625 377.867188h-15c-4.144531 0-7.5 3.359374-7.5 7.5 0 4.144531 3.355469 7.5 7.5 7.5h15c4.140625 0 7.5-3.355469 7.5-7.5 0-4.140626-3.359375-7.5-7.5-7.5zm0 0"/><path d="m332.625 401.574219h-15c-4.144531 0-7.5 3.359375-7.5 7.5 0 4.144531 3.355469 7.5 7.5 7.5h15c4.140625 0 7.5-3.355469 7.5-7.5 0-4.140625-3.359375-7.5-7.5-7.5zm0 0"/><path d="m332.625 425.285156h-15c-4.144531 0-7.5 3.359375-7.5 7.5s3.355469 7.5 7.5 7.5h15c4.140625 0 7.5-3.359375 7.5-7.5s-3.359375-7.5-7.5-7.5zm0 0"/></g></svg>