<svg height="512pt" viewBox="-40 0 512 512" width="512pt" xmlns="http://www.w3.org/2000/svg"><path d="m368.4375 504.484375h-204.769531l-13.582031-76.621094s-62.617188 15.257813-78.339844-26.25c-9.460938-24.976562-22.582032-95.082031-22.582032-95.082031h-29.851562c-8.410156 0-14.117188-8.542969-10.890625-16.304688 13.699219-32.957031 43.867187-105.976562 50.25-125.125 8.320313-24.957031 28.023437-157.585937 174.207031-157.585937 146.1875 0 282.015625 134.066406 116.542969 373.890625zm0 0" fill="#fed2a4"/><g fill="#ffbd86"><path d="m420.859375 140.851562c1.035156 54.066407-19.820313 120.402344-72.691406 198.050782-2.746094 4.027344-3.863281 8.949218-3.121094 13.761718l4.414063 28.683594c68.128906-98.765625 85.148437-179.585937 71.398437-240.496094zm0 0"/><path d="m25.835938 270.460938h-9.21875c-3.074219 7.433593-5.871094 14.175781-8.195313 19.765624-3.226563 7.761719 2.480469 16.304688 10.890625 16.304688h29.722656c-1.65625-7.640625-3.136718-14.777344-4.328125-20.648438-1.820312-8.976562-9.714843-15.421874-18.871093-15.421874zm0 0"/><path d="m150.085938 427.863281.082031.054688-3.207031-17.890625c-1.738282-9.714844-10.539063-16.511719-20.382813-15.804688-19.941406 1.425782-51.507813-1.0625-62.085937-28.683594-4.578126-11.957031-10.007813-34.265624-14.421876-54.269531 3.125 16.15625 13.703126 69.285157 21.675782 90.34375 15.726562 41.507813 78.339844 26.25 78.339844 26.25zm0 0"/><path d="m362.863281 468.414062h-205.589843l6.394531 36.070313h204.769531zm0 0"/></g><path d="m304.738281 258.699219v-96.335938c0-11.070312-8.972656-20.039062-20.039062-20.039062h-96.335938c-11.070312 0-20.039062 8.96875-20.039062 20.039062v96.335938c0 11.066406 8.96875 20.039062 20.039062 20.039062h96.335938c11.066406 0 20.039062-8.972656 20.039062-20.039062zm0 0" fill="#82d361"/><path d="m304.738281 258.699219v-27.054688c0 11.070313-8.972656 20.042969-20.039062 20.042969h-96.335938c-11.070312 0-20.039062-8.972656-20.039062-20.042969v27.054688c0 11.066406 8.96875 20.039062 20.039062 20.039062h96.335938c11.066406 0 20.039062-8.972656 20.039062-20.039062zm0 0" fill="#6acb44"/><path d="m272.691406 236.671875v-52.28125c0-5.535156-4.488281-10.019531-10.019531-10.019531h-52.28125c-5.535156 0-10.019531 4.484375-10.019531 10.019531v52.28125c0 5.53125 4.484375 10.019531 10.019531 10.019531h52.28125c5.53125 0 10.019531-4.488281 10.019531-10.019531zm0 0" fill="#ffe02f"/><path d="m272.691406 236.671875v-27.054687c0 5.535156-4.488281 10.019531-10.019531 10.019531h-52.28125c-5.535156 0-10.019531-4.484375-10.019531-10.019531v27.054687c0 5.53125 4.484375 10.019531 10.019531 10.019531h52.28125c5.53125 0 10.019531-4.488281 10.019531-10.019531zm0 0" fill="#ffd500"/><path d="m255.65625 71.019531c0 10.5625-8.5625 19.128907-19.125 19.128907-10.566406 0-19.128906-8.566407-19.128906-19.128907s8.5625-19.128906 19.128906-19.128906c10.5625 0 19.125 8.566406 19.125 19.128906zm0 0" fill="#ff4755"/><path d="m255.65625 350.042969c0 10.5625-8.5625 19.125-19.125 19.125-10.566406 0-19.128906-8.5625-19.128906-19.125 0-10.566407 8.5625-19.128907 19.128906-19.128907 10.5625 0 19.125 8.5625 19.125 19.128907zm0 0" fill="#ff4755"/><path d="m262.671875 166.855469h-52.28125c-9.667969 0-17.535156 7.867187-17.535156 17.535156v11.109375c0 4.152344 3.363281 7.515625 7.515625 7.515625 4.148437 0 7.515625-3.363281 7.515625-7.515625v-11.109375c0-1.382813 1.121093-2.503906 2.503906-2.503906h52.28125c1.378906 0 2.503906 1.121093 2.503906 2.503906v52.28125c0 1.378906-1.125 2.503906-2.503906 2.503906h-52.28125c-1.382813 0-2.503906-1.125-2.503906-2.503906v-11.109375c0-4.152344-3.367188-7.515625-7.515625-7.515625-4.152344 0-7.515625 3.363281-7.515625 7.515625v11.109375c0 9.667969 7.867187 17.535156 17.535156 17.535156h52.28125c9.667969 0 17.535156-7.867187 17.535156-17.535156v-52.28125c0-9.667969-7.867187-17.535156-17.535156-17.535156zm0 0"/><path d="m399.8125 76.753906c-35.507812-48.0625-97.914062-76.753906-166.933594-76.753906-58.882812 0-105.042968 20.832031-137.199218 61.921875-25.976563 33.183594-36.03125 70.9375-41.433594 91.214844-1.058594 3.96875-1.972656 7.394531-2.703125 9.589843-6.355469 19.070313-37.125 93.5-50.058594 124.613282-2.480469 5.96875-1.820313 12.742187 1.765625 18.117187 3.589844 5.378907 9.59375 8.589844 16.0625 8.589844h23.640625c3.453125 17.808594 13.742187 69.039063 21.769531 90.226563 7.53125 19.890624 25.34375 31.480468 51.507813 33.523437 10.953125.851563 21.128906-.152344 27.78125-1.160156l12.257812 69.160156c.636719 3.585937 3.757813 6.203125 7.402344 6.203125h72.859375c4.152344 0 7.515625-3.367188 7.515625-7.515625s-3.363281-7.515625-7.515625-7.515625h-66.558594l-12.484375-70.417969c-.742187-4.203125-5.019531-7.003906-9.175781-5.988281-.5625.136719-56.316406 13.277344-69.535156-21.613281-9.117188-24.066407-22.09375-93.105469-22.222656-93.800781-.664063-3.554688-3.769532-6.132813-7.386719-6.132813h-29.855469c-3.003906 0-5.109375-3.121094-3.953125-5.90625 13-31.265625 43.929687-106.097656 50.441406-125.632813.878907-2.628906 1.800781-6.089843 2.96875-10.472656 10.34375-38.828125 37.820313-141.972656 164.109375-141.972656 64.273438 0 122.160156 26.410156 154.847656 70.652344 32.324219 43.753906 38.683594 101.789062 18.386719 167.835937-1.21875 3.96875 1.007813 8.171875 4.976563 9.390625s8.171875-1.007812 9.390625-4.976562c27.484375-89.429688 3.929687-147.886719-20.667969-181.179688zm0 0"/><path d="m405.992188 277.148438c-3.84375-1.558594-8.226563.296874-9.785157 4.144531-12.386719 30.605469-30.207031 62.855469-52.972656 95.84375-1.089844 1.582031-1.535156 3.519531-1.242187 5.417969l17.679687 114.414062h-93.082031c-4.148438 0-7.515625 3.367188-7.515625 7.515625 0 4.152344 3.367187 7.515625 7.515625 7.515625h101.847656c2.191406 0 4.277344-.957031 5.703125-2.625 1.429687-1.664062 2.058594-3.871094 1.722656-6.035156l-18.5625-120.136719c22.582031-33.039063 40.351563-65.414063 52.839844-96.269531 1.554687-3.847656-.300781-8.230469-4.148437-9.785156zm0 0"/><path d="m209.886719 350.042969c0 14.6875 11.953125 26.640625 26.644531 26.640625s26.640625-11.953125 26.640625-26.640625c0-12.082031-8.085937-22.304688-19.128906-25.558594v-38.230469h17.84375l16.292969 19.121094v25.539062c0 4.152344 3.367187 7.515626 7.515624 7.515626 4.148438 0 7.515626-3.363282 7.515626-7.515626v-28.308593c0-1.785157-.636719-3.511719-1.796876-4.871094l-9.78125-11.480469h3.066407c15.195312 0 27.554687-12.359375 27.554687-27.554687v-3.066407l11.476563 9.78125c1.363281 1.160157 3.089843 1.796876 4.875 1.796876h28.308593c4.148438 0 7.515626-3.367188 7.515626-7.515626 0-4.148437-3.367188-7.515624-7.515626-7.515624h-25.542968l-19.117188-16.289063v-17.84375h44.660156c4.148438 0 7.515626-3.367187 7.515626-7.515625s-3.367188-7.515625-7.515626-7.515625h-44.660156v-17.84375l19.117188-16.292969h25.542968c4.148438 0 7.515626-3.363281 7.515626-7.511718 0-4.152344-3.367188-7.515626-7.515626-7.515626h-28.308593c-1.785157 0-3.515625.636719-4.875 1.796876l-11.476563 9.78125v-3.066407c0-15.195312-12.363281-27.554687-27.554687-27.554687h-3.066407l9.78125-11.476563c1.160157-1.359375 1.792969-3.089843 1.792969-4.875v-28.308593c0-4.152344-3.363281-7.515626-7.511719-7.515626-4.152343 0-7.515624 3.363282-7.515624 7.515626v25.539062l-16.292969 19.121094h-17.84375v-38.234375c11.042969-3.25 19.128906-13.472657 19.128906-25.554688 0-14.691406-11.953125-26.640625-26.644531-26.640625-14.6875 0-26.640625 11.949219-26.640625 26.640625 0 12.082031 8.085937 22.304688 19.128906 25.554688v38.234375h-17.84375l-16.292969-19.121094v-25.539062c0-4.152344-3.363281-7.515626-7.515625-7.515626-4.148437 0-7.511719 3.363282-7.511719 7.515626v28.308593c0 1.785157.636719 3.511719 1.792969 4.871094l9.78125 11.480469h-3.0625c-15.195312 0-27.554687 12.359375-27.554687 27.554687v3.0625l-11.480469-9.78125c-1.359375-1.15625-3.085937-1.792969-4.871094-1.792969h-28.308593c-4.152344 0-7.515626 3.363282-7.515626 7.511719 0 4.152344 3.363282 7.515625 7.515626 7.515625h25.539062l19.121094 16.292969v17.84375h-44.660156c-4.152344 0-7.515626 3.363281-7.515626 7.515625 0 4.148438 3.363282 7.511719 7.515626 7.511719h44.660156v17.847656l-19.121094 16.289063h-25.539062c-4.152344 0-7.515626 3.367187-7.515626 7.515624 0 4.148438 3.363282 7.515626 7.515626 7.515626h28.308593c1.785157 0 3.511719-.636719 4.871094-1.796876l11.480469-9.78125v3.066407c0 15.195312 12.359375 27.554687 27.550781 27.554687h3.066406l-9.78125 11.480469c-1.15625 1.359375-1.796875 3.085937-1.796875 4.871094v28.308593c0 4.152344 3.367188 7.515626 7.515625 7.515626 4.152344 0 7.515625-3.363282 7.515625-7.515626v-25.539062l16.292969-19.121094h17.839844v38.230469c-11.039063 3.253906-19.125 13.476563-19.125 25.558594zm15.03125-279.023438c0-6.402343 5.207031-11.613281 11.613281-11.613281 6.402344 0 11.613281 5.210938 11.613281 11.613281 0 6.402344-5.210937 11.613281-11.613281 11.613281s-11.613281-5.210937-11.613281-11.613281zm-36.554688 200.203125c-6.90625 0-12.527343-5.617187-12.527343-12.523437v-96.335938c0-6.90625 5.621093-12.527343 12.527343-12.527343h96.335938c6.90625 0 12.523437 5.621093 12.523437 12.527343v96.335938c0 6.90625-5.617187 12.523437-12.523437 12.523437zm48.167969 67.207032c6.402344 0 11.613281 5.210937 11.613281 11.613281 0 6.402343-5.210937 11.613281-11.613281 11.613281-6.40625 0-11.613281-5.210938-11.613281-11.613281 0-6.402344 5.210937-11.613281 11.613281-11.613281zm0 0"/></svg>