<svg height="512pt" viewBox="0 -22 512 512" width="512pt" xmlns="http://www.w3.org/2000/svg"><path d="m85.703125 68.765625c-.960937-22.078125-19.636719-39.195313-41.710937-38.234375-22.078126.964844-39.195313 19.640625-38.234376 41.714844.960938 22.078125 19.636719 39.195312 41.714844 38.234375 22.074219-.960938 39.191406-19.636719 38.230469-41.714844zm0 0" fill="#fee063"/><path d="m41.277344 72.242188c-.710938-16.320313 8.464844-30.773438 22.214844-37.59375-5.855469-2.910157-12.507813-4.421876-19.5-4.121094-22.078126.964844-39.191407 19.640625-38.230469 41.714844.960937 22.074218 19.636719 39.191406 41.710937 38.230468 5.753906-.253906 11.167969-1.714844 16.015625-4.121094-12.625-6.269531-21.550781-19.03125-22.210937-34.109374zm0 0" fill="#f9d021"/><path d="m416.75 236.621094c2.160156 2.238281 2.378906 5.707031.511719 8.199218l-26.761719 35.679688v39.878906c0 1.960938-.921875 3.820313-2.480469 5.019532l-31.519531 24.101562-10 52-58.769531 36.53125c-6.640625 4.128906-15.230469-.652344-15.230469-8.472656v-337.6875c0-12.792969 14.691406-19.992188 24.800781-12.171875l37.199219 28.800781 5 39 46.03125 18.410156c2.398438.960938 3.96875 3.289063 3.96875 5.871094v36.71875zm0 0" fill="#76b1cb"/><path d="m313.898438 279.730469-.398438-.230469 28-38h76l1.011719.019531c-.089844 1.160157-.511719 2.308594-1.25 3.300781l-26.761719 35.679688v39.878906c0 .960938-.21875 1.902344-.640625 2.75zm0 0" fill="#579ab2"/><path d="m417.5 241.5h-76l48-33 27.25 28.121094c1.300781 1.347656 1.898438 3.140625 1.761719 4.898437zm0 0" fill="#439fbf"/><path d="m356.5 349.5-10 52-58.769531 36.53125c-6.640625 4.128906-15.230469-.652344-15.230469-8.472656v-79.71875zm0 0" fill="#439fbf"/><path d="m306.5 200.5 35 41-28 38 .398438.230469-41.398438 15.78125v-134.839844zm0 0" fill="#438fa3"/><path d="m341.078125 148.128906-34.578125 52.371094-34-39.828125 62-52.171875 5 39zm0 0" fill="#439fbf"/><path d="m272.5 91.871094c0-12.792969 14.691406-19.992188 24.800781-12.171875l37.199219 28.800781-62 52.171875zm0 0" fill="#579ab2"/><path d="m240.5 91.871094v337.6875c0 7.820312-8.589844 12.601562-15.230469 8.472656l-58.769531-36.53125-10-52-31.519531-24.101562c-1.558594-1.199219-2.480469-3.058594-2.480469-5.019532v-39.878906l-26.761719-35.679688c-1.867187-2.492187-1.648437-5.960937.511719-8.199218l27.25-28.121094v-36.71875c0-2.582031 1.570312-4.910156 3.96875-5.871094l46.03125-18.410156 5-39 37.199219-28.800781c10.109375-7.820313 24.800781-.621094 24.800781 12.171875zm0 0" fill="#a6a6a6"/><path d="m504.5 392.789062v39.421876c0 3.480468-2.808594 6.289062-6.289062 6.289062h-39.421876c-3.480468 0-6.289062-2.808594-6.289062-6.289062v-39.421876c0-3.480468 2.808594-6.289062 6.289062-6.289062h39.421876c3.480468 0 6.289062 2.808594 6.289062 6.289062zm0 0" fill="#fee063"/><path d="m145.5 431.820312v22.359376c0 3.492187-2.828125 6.320312-6.320312 6.320312h-108.359376c-3.492187 0-6.320312-2.828125-6.320312-6.320312v-22.359376c0-3.492187 2.828125-6.320312 6.320312-6.320312h108.359376c3.492187 0 6.320312 2.828125 6.320312 6.320312zm0 0" fill="#75dbad"/><path d="m452.5 27.5h-41.710938c-3.480468 0-6.289062 2.808594-6.289062 6.289062v67.421876c0 3.480468 2.808594 6.289062 6.289062 6.289062h67.421876c3.480468 0 6.289062-2.808594 6.289062-6.289062v-73.710938zm0 0" fill="#75dbad"/><path d="m437 27.5v37.460938c0 5.554687 4.484375 10.039062 10.039062 10.039062h37.460938v-47.5zm0 0" fill="#15ce71"/><path d="m504.5 13.789062v39.421876c0 3.480468-2.808594 6.289062-6.289062 6.289062h-39.421876c-3.480468 0-6.289062-2.808594-6.289062-6.289062v-39.421876c0-3.480468 2.808594-6.289062 6.289062-6.289062h39.421876c3.480468 0 6.289062 2.808594 6.289062 6.289062zm0 0" fill="#71d3a4"/><g fill="#fee063"><path d="m216.5 338.5c0 6.074219-4.925781 11-11 11s-11-4.925781-11-11 4.925781-11 11-11 11 4.925781 11 11zm0 0"/><path d="m210.5 172.5c0 6.074219-4.925781 11-11 11s-11-4.925781-11-11 4.925781-11 11-11 11 4.925781 11 11zm0 0"/><path d="m193.5 240.5c0 7.730469-6.269531 14-14 14s-14-6.269531-14-14 6.269531-14 14-14 14 6.269531 14 14zm0 0"/></g><path d="m398 320.375v-37.375l25.261719-33.683594c4.101562-5.46875 3.628906-13-1.128907-17.910156l-25.132812-25.941406v-33.683594c0-5.6875-3.410156-10.722656-8.6875-12.835938l-41.933594-16.769531-4.441406-34.628906c-.25-1.972656-1.277344-3.761719-2.847656-4.976563l-37.195313-28.796874c-6.957031-5.386719-16.1875-6.328126-24.085937-2.453126-7.902344 3.875-12.808594 11.75-12.808594 20.546876v337.695312c0 6.339844 3.441406 12.191406 8.984375 15.269531 2.640625 1.46875 5.5625 2.199219 8.484375 2.199219 3.207031 0 6.40625-.878906 9.222656-2.632812l58.769532-36.527344c1.773437-1.105469 3.007812-2.902344 3.402343-4.957032l9.460938-49.191406 29.25-22.367187c3.398437-2.597657 5.425781-6.703125 5.425781-10.980469zm-13.5-44.375c-.972656 1.296875-1.5 2.878906-1.5 4.5v30.074219l-58.464844-33.40625 20.753906-28.167969h59.460938zm-76.121094-2.195312-28.378906 10.816406v-103.613282l20.796875 24.359376c0 .003906 0 .003906.003906.007812l31.132813 36.46875zm20.429688-150.714844 3.222656 25.136718-26.296875 39.824219-22.625-26.503906zm59.714844 95.183594 15.238281 15.726562h-38.113281zm-6.523438-13.71875-39.183594 26.9375-26.949218-31.570313 28.105468-42.554687 38.027344 15.210937zm-97.585938-119.765626c1.132813-.558593 2.324219-.832031 3.503907-.832031 1.691406 0 3.359375.566407 4.792969 1.675781l29.851562 23.109376-42.5625 35.8125v-52.6875c0-3.078126 1.648438-5.722657 4.414062-7.078126zm-.640624 346.871094c-1.074219.667969-2.027344.324219-2.503907.0625-.472656-.265625-1.269531-.894531-1.269531-2.160156v-72.253906l19.53125-.082032c4.140625-.015624 7.484375-3.386718 7.46875-7.527343-.015625-4.132813-3.371094-7.472657-7.5-7.472657-.011719 0-.019531 0-.03125 0l-19.46875.078126v-41.628907l33.257812-12.675781 63.710938 36.40625-23.019531 17.605469-24.476563.097656c-4.144531.015625-7.488281 3.386719-7.472656 7.527344.019531 4.132812 3.371094 7.472656 7.5 7.472656h.03125l17.882812-.074219-7.660156 39.828125zm0 0"/><path d="m235.191406 71.320312c-7.898437-3.875-17.128906-2.933593-24.085937 2.453126l-37.195313 28.796874c-1.570312 1.214844-2.597656 3.003907-2.847656 4.976563l-4.441406 34.628906-41.933594 16.769531c-5.277344 2.113282-8.6875 7.152344-8.6875 12.835938v33.683594l-25.132812 25.941406c-4.753907 4.910156-5.230469 12.441406-1.128907 17.910156l25.261719 33.683594v37.375c0 2.558594.738281 5.050781 2.050781 7.199219l-60.738281 60.738281c-1.40625 1.40625-2.199219 3.3125-2.199219 5.300781v24.386719h-23.292969c-7.621093 0-13.820312 6.199219-13.820312 13.820312v22.359376c0 7.621093 6.199219 13.820312 13.820312 13.820312h108.359376c7.621093 0 13.820312-6.199219 13.820312-13.820312v-22.359376c0-7.621093-6.199219-13.820312-13.820312-13.820312h-70.066407v-21.277344l59.277344-59.273437 21.285156 16.273437 9.457031 49.195313c.394532 2.054687 1.628907 3.847656 3.40625 4.953125l58.769532 36.53125c2.816406 1.75 6.015625 2.628906 9.222656 2.628906 2.921875 0 5.847656-.730469 8.488281-2.199219 5.539063-3.078125 8.980469-8.929687 8.980469-15.269531v-209.8125c0-4.144531-3.359375-7.5-7.5-7.5s-7.5 3.355469-7.5 7.5v13.25h-33.378906c-1.730469-4.632812-5.007813-8.503906-9.210938-10.992188l9.625-31.035156c8.21875-.238281 15.097656-5.847656 17.25-13.441406l15.714844-7.675781v19.894531c0 4.144531 3.359375 7.5 7.5 7.5s7.5-3.355469 7.5-7.5v-97.882812c0-8.796876-4.90625-16.671876-12.808594-20.546876zm-97.191406 381.679688h-106v-20h106zm-9.113281-239.28125c1.355469-1.398438 2.113281-3.269531 2.113281-5.21875v-35.921875l40.761719-16.304687 10.324219 10.046874c-.691407 1.9375-1.085938 4.011719-1.085938 6.179688 0 4.933594 1.953125 9.410156 5.109375 12.730469l-10.589844 34.152343c-7.453125 1.402344-13.539062 6.660157-16.140625 13.617188h-49.171875zm50.613281 20.28125c3.585938 0 6.5 2.914062 6.5 6.5s-2.914062 6.5-6.5 6.5-6.5-2.914062-6.5-6.5 2.914062-6.5 6.5-6.5zm-72 14h51.878906c2.382813 6.375 7.691406 11.3125 14.300782 13.179688l19.226562 63.804687c-2.679688 2.5-4.621094 5.777344-5.449219 9.476563l-29.226562 6.921874-28.230469-21.589843v-39.292969c0-1.621094-.527344-3.203125-1.5-4.5zm98 87c1.929688 0 3.5 1.570312 3.5 3.5s-1.570312 3.5-3.5 3.5-3.5-1.570312-3.5-3.5 1.570312-3.5 3.5-3.5zm-32.253906 61.863281-8.023438-41.722656 25.195313-5.964844c3.195312 4.503907 8.351562 7.507813 14.214843 7.78125l17.589844 70.347657zm59.753906 11.714844-14.289062-57.152344c3.265624-3.339843 5.289062-7.898437 5.289062-12.925781 0-9.660156-7.449219-17.605469-16.902344-18.417969l-18.167968-60.289062c4.910156-2.410157 8.761718-6.628907 10.691406-11.792969h33.378906zm-33.5-232.578125c-1.929688 0-3.5-1.570312-3.5-3.5s1.570312-3.5 3.5-3.5 3.5 1.570312 3.5 3.5-1.570312 3.5-3.5 3.5zm15.265625-13.929688c-3.335937-4.867187-8.929687-8.070312-15.265625-8.070312-2.519531 0-4.917969.507812-7.105469 1.425781l-10.980469-10.6875 4.128907-32.207031 34.742187-26.898438c2.433594-1.882812 5.539063-2.199218 8.300782-.84375 2.761718 1.355469 4.414062 4 4.414062 7.078126v61.296874zm0 0"/><path d="m51 71c0 4.144531 3.359375 7.5 7.5 7.5h35.394531l52.300781 52.304688c1.464844 1.464843 3.386719 2.195312 5.304688 2.195312s3.839844-.730469 5.304688-2.195312c2.925781-2.929688 2.925781-7.679688 0-10.609376l-54.5-54.5c-1.40625-1.40625-3.316407-2.195312-5.304688-2.195312h-38.5c-4.140625 0-7.5 3.355469-7.5 7.5zm0 0"/><path d="m79.886719 100.296875c2.714843-3.128906 2.378906-7.863281-.75-10.578125-3.132813-2.714844-7.867188-2.378906-10.582031.75-5.804688 6.691406-14.207032 10.53125-23.054688 10.53125-16.816406 0-30.5-13.683594-30.5-30.5s13.683594-30.5 30.5-30.5c9.433594 0 18.1875 4.265625 24.015625 11.695312 2.558594 3.261719 7.273437 3.832032 10.53125 1.273438 3.257813-2.554688 3.828125-7.269531 1.273437-10.527344-8.691406-11.085937-21.75-17.441406-35.820312-17.441406-25.089844 0-45.5 20.410156-45.5 45.5s20.410156 45.5 45.5 45.5c13.199219 0 25.730469-5.722656 34.386719-15.703125zm0 0"/><path d="m498.214844 379h-39.429688c-7.601562 0-13.785156 6.183594-13.785156 13.785156v12.714844h-20.894531l-41.300781-41.304688c-2.929688-2.925781-7.679688-2.925781-10.609376 0-2.925781 2.929688-2.925781 7.679688 0 10.609376l43.5 43.5c1.40625 1.40625 3.316407 2.195312 5.304688 2.195312h24v11.714844c0 7.601562 6.183594 13.785156 13.785156 13.785156h39.429688c7.601562 0 13.785156-6.183594 13.785156-13.785156v-39.429688c0-7.601562-6.183594-13.785156-13.785156-13.785156zm-1.214844 52h-37v-37h37zm0 0"/><path d="m498.214844 0h-39.429688c-7.601562 0-13.785156 6.183594-13.785156 13.785156v6.214844h-34.214844c-7.601562 0-13.785156 6.183594-13.785156 13.785156v67.429688c0 7.601562 6.183594 13.785156 13.785156 13.785156h26.214844v20.394531l-25.804688 25.800781c-2.925781 2.933594-2.925781 7.679688 0 10.609376 1.464844 1.464843 3.386719 2.195312 5.304688 2.195312s3.839844-.730469 5.304688-2.195312l28-28c1.40625-1.40625 2.195312-3.316407 2.195312-5.304688v-23.5h26.214844c7.601562 0 13.785156-6.183594 13.785156-13.785156v-34.214844h6.214844c7.601562 0 13.785156-6.183594 13.785156-13.785156v-39.429688c0-7.601562-6.183594-13.785156-13.785156-13.785156zm-21.214844 100h-65v-65h33v18.214844c0 7.601562 6.183594 13.785156 13.785156 13.785156h18.214844zm20-48h-37v-37h37zm0 0"/></svg>