<svg height="512pt" viewBox="-18 0 512 512" width="512pt" xmlns="http://www.w3.org/2000/svg"><path d="m454.027344 95.828125h-431.921875v-78.328125c0-5.523438 4.476562-10 10-10h411.921875c5.523437 0 10 4.476562 10 10zm0 0" fill="#fff"/><path d="m63.492188 7.5h349.148437v88.328125h-349.148437zm0 0" fill="#76ffd9"/><path d="m457.164062 504.5h-438.191406c-6.335937 0-11.472656-5.136719-11.472656-11.472656v-415.859375c0-6.335938 5.136719-11.472657 11.472656-11.472657h438.191406c6.332032 0 11.46875 5.136719 11.46875 11.472657v415.859375c0 6.335937-5.136718 11.472656-11.46875 11.472656zm0 0" fill="#ffc843"/><path d="m468.636719 77.171875v415.859375c0 6.328125-5.140625 11.46875-11.46875 11.46875h-20.871094c6.339844 0 11.480469-5.140625 11.480469-11.46875v-415.859375c0-6.34375-5.140625-11.472656-11.480469-11.472656h20.871094c6.328125 0 11.46875 5.128906 11.46875 11.472656zm0 0" fill="#f7a500"/><path d="m401.171875 407.917969h-326.207031c-6.335938 0-11.472656-5.136719-11.472656-11.472657v-275.929687c0-6.335937 5.136718-11.46875 11.472656-11.46875h326.207031c6.332031 0 11.46875 5.132813 11.46875 11.46875v275.929687c0 6.335938-5.136719 11.472657-11.46875 11.472657zm0 0" fill="#fff"/><path d="m412.636719 120.519531v275.929688c0 6.332031-5.128907 11.472656-11.46875 11.472656h-18.480469c6.328125 0 11.46875-5.140625 11.46875-11.472656v-275.929688c0-6.339843-5.140625-11.46875-11.46875-11.46875h18.480469c6.339843 0 11.46875 5.128907 11.46875 11.46875zm0 0" fill="#d9dfe9"/><path d="m150.253906 279.507812c0 12.527344-10.160156 22.6875-22.691406 22.6875s-22.6875-10.160156-22.6875-22.6875c0-12.53125 10.15625-22.691406 22.6875-22.691406s22.691406 10.160156 22.691406 22.691406zm0 0" fill="#76ffd9"/><path d="m239.230469 302.195312h-45.390625c-6.332032 0-11.46875-5.136718-11.46875-11.472656v-22.433594c0-6.335937 5.136718-11.472656 11.46875-11.472656h45.390625c6.335937 0 11.46875 5.136719 11.46875 11.472656v22.433594c0 6.335938-5.132813 11.472656-11.46875 11.472656zm0 0" fill="#76ffd9"/><path d="m239.230469 382.625h-45.390625c-6.332032 0-11.46875-5.136719-11.46875-11.472656v-22.433594c0-6.335938 5.136718-11.472656 11.46875-11.472656h45.390625c6.335937 0 11.46875 5.136718 11.46875 11.472656v22.433594c0 6.335937-5.132813 11.472656-11.46875 11.472656zm0 0" fill="#fff"/><path d="m234.011719 438.917969-21.890625 21.890625c-3.613282 3.613281-1.054688 9.789062 4.054687 9.789062h43.785157c5.109374 0 7.667968-6.175781 4.054687-9.789062l-21.890625-21.890625c-2.242188-2.238281-5.875-2.238281-8.113281 0zm0 0" fill="#fff"/><path d="m461.527344 58.722656v-41.222656c0-9.648438-7.851563-17.5-17.5-17.5h-411.921875c-9.648438 0-17.5 7.851562-17.5 17.5v41.222656c-8.359375 1.980469-14.605469 9.488282-14.605469 18.445313v53.570312c0 4.144531 3.359375 7.5 7.5 7.5 4.144531 0 7.5-3.355469 7.5-7.5v-53.570312c0-2.191407 1.78125-3.972657 3.972656-3.972657h438.191406c2.1875 0 3.972657 1.78125 3.972657 3.972657v324.570312c0 4.144531 3.355469 7.5 7.5 7.5 4.140625 0 7.5-3.355469 7.5-7.5v-324.570312c-.003907-8.957031-6.25-16.464844-14.609375-18.445313zm-15-.527344h-416.921875v-40.695312c0-1.378906 1.121093-2.5 2.5-2.5h59.089843v17.734375c0 4.144531 3.355469 7.5 7.5 7.5 4.144532 0 7.5-3.355469 7.5-7.5v-17.734375h15.972657v17.734375c0 4.144531 3.355469 7.5 7.5 7.5 4.140625 0 7.5-3.355469 7.5-7.5v-17.734375h15.972656v17.734375c0 4.144531 3.355469 7.5 7.5 7.5 4.140625 0 7.5-3.355469 7.5-7.5v-17.734375h15.96875v17.734375c0 4.144531 3.359375 7.5 7.5 7.5 4.144531 0 7.5-3.355469 7.5-7.5v-17.734375h46.945313v17.734375c0 4.144531 3.355468 7.5 7.5 7.5 4.140624 0 7.5-3.355469 7.5-7.5v-17.734375h15.972656v17.734375c0 4.144531 3.355468 7.5 7.5 7.5 4.140625 0 7.5-3.355469 7.5-7.5v-17.734375h15.96875v17.734375c0 4.144531 3.359375 7.5 7.5 7.5 4.144531 0 7.5-3.355469 7.5-7.5v-17.734375h46.945312v17.734375c0 4.144531 3.355469 7.5 7.5 7.5 4.144532 0 7.5-3.355469 7.5-7.5v-17.734375h59.085938c1.378906 0 2.5 1.121094 2.5 2.5zm0 0" fill="#474d54"/><path d="m468.632812 428.761719c-4.140624 0-7.5 3.355469-7.5 7.5v56.765625c0 2.191406-1.78125 3.972656-3.96875 3.972656h-362.835937c-4.140625 0-7.5 3.359375-7.5 7.5s3.359375 7.5 7.5 7.5h362.835937c10.460938 0 18.96875-8.511719 18.96875-18.972656v-56.765625c0-4.144531-3.355468-7.5-7.5-7.5zm0 0" fill="#474d54"/><path d="m59.808594 497h-40.835938c-2.191406 0-3.972656-1.78125-3.972656-3.972656v-327.765625c0-4.144531-3.355469-7.5-7.5-7.5s-7.5 3.355469-7.5 7.5v327.765625c0 10.460937 8.511719 18.972656 18.972656 18.972656h40.835938c4.140625 0 7.5-3.359375 7.5-7.5s-3.359375-7.5-7.5-7.5zm0 0" fill="#474d54"/><path d="m371.261719 135.460938h-243.699219c-4.140625 0-7.5 3.359374-7.5 7.5v19.164062h-15.1875c-4.144531 0-7.5 3.355469-7.5 7.5 0 4.140625 3.355469 7.5 7.5 7.5h15.1875v9.261719h-15.1875c-4.144531 0-7.5 3.355469-7.5 7.5 0 4.140625 3.355469 7.5 7.5 7.5h15.1875v9.261719h-15.1875c-4.144531 0-7.5 3.359374-7.5 7.5 0 4.140624 3.355469 7.5 7.5 7.5h15.1875v24.613281c-13.027344 3.34375-22.6875 15.1875-22.6875 29.246093 0 16.644532 13.542969 30.1875 30.1875 30.1875 16.648438 0 30.191406-13.542968 30.191406-30.1875 0-14.058593-9.660156-25.902343-22.691406-29.246093v-99.796875h180.425781v119.980468h-57.285156v-2.15625c0-10.460937-8.511719-18.96875-18.972656-18.96875h-45.386719c-10.460938 0-18.972656 8.507813-18.972656 18.96875v22.4375c0 8.234376 5.285156 15.242188 12.632812 17.859376v22.273437c-7.347656 2.617187-12.632812 9.625-12.632812 17.859375v22.4375c0 10.457031 8.511718 18.96875 18.972656 18.96875h45.386719c10.460937 0 18.972656-8.507812 18.972656-18.96875v-2.878906h113.058594c4.140625 0 7.5-3.359375 7.5-7.5v-217.816406c0-4.140626-3.359375-7.5-7.5-7.5zm-228.507813 144.046874c0 8.375-6.816406 15.1875-15.191406 15.1875s-15.1875-6.8125-15.1875-15.1875 6.8125-15.191406 15.1875-15.191406 15.191406 6.816406 15.191406 15.191406zm221.007813-9.066406h-8.835938v-119.980468h8.835938zm-33.273438-119.980468h9.4375v119.980468h-9.4375zm-121.453125 159.234374v20.050782h-6.53125v-20.050782zm15 0h6.53125v20.050782h-6.53125zm-34.164062-41.40625c0-2.191406 1.78125-3.972656 3.972656-3.972656h45.386719c2.191406 0 3.972656 1.78125 3.972656 3.972656v22.4375c0 2.1875-1.78125 3.96875-3.972656 3.96875h-45.386719c-2.191406 0-3.972656-1.78125-3.972656-3.96875zm53.328125 102.863282c0 2.191406-1.777344 3.972656-3.96875 3.972656h-45.390625c-2.1875 0-3.972656-1.78125-3.972656-3.972656v-22.433594c0-2.191406 1.78125-3.972656 3.972656-3.972656h45.390625c2.1875 0 3.96875 1.78125 3.96875 3.972656zm15-17.878906v-4.554688c0-8.238281-5.285157-15.246094-12.632813-17.859375v-22.273437c7.347656-2.617188 12.632813-9.625 12.632813-17.859376v-5.28125h105.5625v67.828126zm0 0" fill="#474d54"/><g fill="#c2c7d0"><path d="m170.59375 172.105469h-.070312c-4.144532 0-7.464844 3.355469-7.464844 7.5 0 4.140625 3.394531 7.5 7.535156 7.5s7.5-3.359375 7.5-7.5c0-4.144531-3.359375-7.5-7.5-7.5zm0 0"/><path d="m199.742188 172.105469h-.070313c-4.144531 0-7.464844 3.355469-7.464844 7.5 0 4.140625 3.394531 7.5 7.535157 7.5 4.140624 0 7.5-3.359375 7.5-7.5 0-4.144531-3.355469-7.5-7.5-7.5zm0 0"/><path d="m228.890625 172.105469h-.070313c-4.144531 0-7.464843 3.355469-7.464843 7.5 0 4.140625 3.390625 7.5 7.535156 7.5 4.140625 0 7.5-3.359375 7.5-7.5 0-4.144531-3.359375-7.5-7.5-7.5zm0 0"/><path d="m258.035156 172.105469h-.070312c-4.140625 0-7.460938 3.355469-7.460938 7.5 0 4.140625 3.390625 7.5 7.53125 7.5 4.144532 0 7.5-3.359375 7.5-7.5 0-4.144531-3.355468-7.5-7.5-7.5zm0 0"/><path d="m287.1875 187.105469c4.140625 0 7.5-3.359375 7.5-7.5 0-4.144531-3.359375-7.5-7.5-7.5h-.074219c-4.140625 0-7.464843 3.355469-7.464843 7.5 0 4.140625 3.394531 7.5 7.539062 7.5zm0 0"/><path d="m183.445312 210.117188h.054688c4.140625-.027344 7.476562-3.40625 7.445312-7.550782-.027343-4.125-3.378906-7.449218-7.496093-7.449218-.019531 0-.035157 0-.054688 0h-.070312c-4.140625.027343-7.441407 3.410156-7.414063 7.550781.03125 4.125 3.417969 7.449219 7.535156 7.449219zm0 0"/><path d="m212.59375 210.117188h.054688c4.140624-.027344 7.476562-3.40625 7.445312-7.550782-.027344-4.125-3.378906-7.449218-7.496094-7.449218-.019531 0-.035156 0-.054687 0h-.070313c-4.144531.027343-7.441406 3.410156-7.414062 7.550781.03125 4.125 3.417968 7.449219 7.535156 7.449219zm0 0"/><path d="m241.742188 210.117188h.050781c4.144531-.027344 7.476562-3.40625 7.449219-7.550782-.027344-4.125-3.378907-7.449218-7.5-7.449218-.015626 0-.03125 0-.050782 0h-.070312c-4.144532.027343-7.441406 3.410156-7.414063 7.550781.027344 4.125 3.414063 7.449219 7.535157 7.449219zm0 0"/><path d="m270.890625 210.117188h.050781c4.144532-.027344 7.480469-3.40625 7.449219-7.550782-.027344-4.140625-3.457031-7.488281-7.550781-7.449218h-.070313c-4.144531.027343-7.441406 3.410156-7.414062 7.550781.027343 4.125 3.417969 7.449219 7.535156 7.449219zm0 0"/><path d="m178.09375 225.632812c0-4.144531-3.355469-7.5-7.5-7.5h-.070312c-4.144532 0-7.464844 3.355469-7.464844 7.5 0 4.140626 3.394531 7.5 7.535156 7.5s7.5-3.359374 7.5-7.5zm0 0"/><path d="m199.742188 233.132812c4.144531 0 7.5-3.359374 7.5-7.5 0-4.144531-3.355469-7.5-7.5-7.5h-.070313c-4.144531 0-7.464844 3.355469-7.464844 7.5 0 4.140626 3.394531 7.5 7.535157 7.5zm0 0"/><path d="m228.890625 233.132812c4.140625 0 7.5-3.359374 7.5-7.5 0-4.144531-3.359375-7.5-7.5-7.5h-.070313c-4.144531 0-7.464843 3.355469-7.464843 7.5 0 4.140626 3.390625 7.5 7.535156 7.5zm0 0"/><path d="m258.035156 233.132812c4.144532 0 7.5-3.359374 7.5-7.5 0-4.144531-3.355468-7.5-7.5-7.5h-.070312c-4.140625 0-7.460938 3.355469-7.460938 7.5 0 4.140626 3.390625 7.5 7.53125 7.5zm0 0"/><path d="m287.1875 233.132812c4.140625 0 7.5-3.359374 7.5-7.5 0-4.144531-3.359375-7.5-7.5-7.5h-.074219c-4.140625 0-7.464843 3.355469-7.464843 7.5 0 4.140626 3.394531 7.5 7.539062 7.5zm0 0"/></g><path d="m407.800781 443.359375h-34.8125c-4.144531 0-7.5 3.359375-7.5 7.5 0 4.144531 3.355469 7.5 7.5 7.5h34.8125c4.140625 0 7.5-3.355469 7.5-7.5 0-4.140625-3.359375-7.5-7.5-7.5zm0 0" fill="#fff"/><path d="m407.800781 461.835938h-23.507812c-4.144531 0-7.5 3.359374-7.5 7.5 0 4.144531 3.355469 7.5 7.5 7.5h23.507812c4.140625 0 7.5-3.355469 7.5-7.5 0-4.140626-3.359375-7.5-7.5-7.5zm0 0" fill="#fff"/></svg>