<svg height="491pt" viewBox="0 -109 491.92348 491" width="491pt" xmlns="http://www.w3.org/2000/svg"><path d="m445.476562 137.691406c0-9.65625 6.820313-17.96875 16.289063-19.855468 9.46875-1.882813 18.953125 3.183593 22.648437 12.105468 3.699219 8.917969.578126 19.207032-7.449218 24.574219s-18.730469 4.3125-25.558594-2.515625c-3.800781-3.789062-5.933594-8.9375-5.929688-14.308594zm0 0" fill="#6fe3ff"/><path d="m440.9375 59.792969c.003906-9.652344 6.828125-17.957031 16.292969-19.835938 9.464843-1.875 18.941406 3.195313 22.628906 12.113281 3.691406 8.917969.566406 19.199219-7.460937 24.558594-8.023438 5.355469-18.71875 4.300782-25.539063-2.527344-3.800781-3.792968-5.929687-8.941406-5.921875-14.308593zm0 0" fill="#6fe3ff"/><path d="m440.9375 215.589844c.003906-9.648438 6.828125-17.953125 16.292969-19.832032 9.464843-1.878906 18.941406 3.191407 22.628906 12.109376 3.691406 8.917968.566406 19.203124-7.460937 24.558593-8.023438 5.359375-18.71875 4.300781-25.539063-2.523437-3.800781-3.792969-5.929687-8.941406-5.921875-14.3125zm0 0" fill="#6fe3ff"/><path d="m304.175781 44.601562c14.863281-8.042968 33.167969-5.925781 45.804688 5.296876 12.632812 11.21875 16.898437 29.144531 10.667969 44.851562h.007812c2.8125.820312 5.480469 2.0625 7.921875 3.679688 13.003906 8.632812 16.734375 26.066406 8.398437 39.261718-.117187.191406-.238281.378906-.367187.570313-2.394531 3.601562-5.566406 6.613281-9.28125 8.820312 9.835937 6 16.621094 15.933594 18.640625 27.28125.40625 2.316407.609375 4.664063.609375 7.019531 0 17.933594-11.882813 33.695313-29.121094 38.640626v14.597656c-.003906 11.363281-6.398437 21.757812-16.539062 26.886718-10.144531 5.128907-22.304688 4.117188-31.460938-2.617187-8.371093 9.222656-21.550781 12.34375-33.167969 7.859375-11.617187-4.488281-19.277343-15.65625-19.28125-28.109375v-28.96875c28.382813-5.324219 48.949219-30.105469 48.949219-58.980469s-20.566406-53.65625-48.949219-58.980468v-59.988282c.003907-10.539062 6.589844-19.949218 16.484376-23.570312 9.894531-3.617188 20.996093-.675782 27.800781 7.371094 6.800781 8.046874 7.859375 19.480468 2.644531 28.636718zm0 0" fill="#e48e66"/><path d="m257.007812 91.710938c31.714844 5.90625 53.179688 35.703124 48.738282 67.652343-4.4375 31.953125-33.214844 54.765625-65.335938 51.800781-32.121094-2.964843-56.238281-30.660156-54.753906-62.886718 1.484375-32.222656 28.042969-57.585938 60.300781-57.585938 3.707031 0 7.40625.339844 11.050781 1.019532zm0 0" fill="#f8ec7d"/><path d="m124.585938 147.082031c-3.714844-2.207031-6.886719-5.21875-9.277344-8.820312-.132813-.191407-.25-.378907-.371094-.570313-4.808594-7.640625-5.753906-17.097656-2.542969-25.539062 3.207031-8.441406 10.191407-14.882813 18.863281-17.402344h.007813c-6.238281-15.707031-1.976563-33.640625 10.660156-44.863281 12.640625-11.222657 30.949219-13.335938 45.8125-5.285157l.238281-.441406c-5.21875-9.15625-4.164062-20.597656 2.640626-28.648437 6.800781-8.046875 17.910156-10.992188 27.808593-7.371094 9.898438 3.621094 16.480469 13.039063 16.480469 23.582031v59.988282c-28.378906 5.324218-48.945312 30.105468-48.945312 58.980468s20.566406 53.65625 48.945312 58.980469v28.96875c0 12.453125-7.664062 23.621094-19.28125 28.109375-11.617188 4.484375-24.796875 1.363281-33.167969-7.859375-9.152343 6.734375-21.316406 7.746094-31.457031 2.617187-10.140625-5.128906-16.539062-15.523437-16.542969-26.886718v-14.597656c-17.246093-4.9375-29.128906-20.707032-29.121093-38.640626 0-2.355468.207031-4.703124.613281-7.019531 2.015625-11.347656 8.800781-21.28125 18.636719-27.28125zm0 0" fill="#e48e66"/><path d="m50.976562 59.792969c-.003906 9.648437-6.824218 17.953125-16.292968 19.832031-9.464844 1.878906-18.941406-3.191406-22.628906-12.109375-3.691407-8.917969-.566407-19.199219 7.460937-24.558594s18.71875-4.300781 25.542969 2.523438c3.796875 3.792969 5.929687 8.945312 5.917968 14.3125zm0 0" fill="#6fe3ff"/><path d="m50.976562 215.589844c-.003906 9.652344-6.824218 17.957031-16.292968 19.835937-9.464844 1.875-18.941406-3.191406-22.628906-12.109375-3.691407-8.917968-.566407-19.203125 7.460937-24.558594 8.027344-5.359374 18.71875-4.304687 25.542969 2.523438 3.796875 3.792969 5.929687 8.941406 5.917968 14.308594zm0 0" fill="#6fe3ff"/><path d="m46.4375 137.691406c0 9.65625-6.816406 17.96875-16.289062 19.855469-9.46875 1.882813-18.953126-3.183594-22.648438-12.101563-3.695312-8.921874-.578125-19.210937 7.449219-24.578124 8.027343-5.363282 18.730469-4.3125 25.558593 2.515624 3.800782 3.789063 5.933594 8.941407 5.929688 14.308594zm0 0" fill="#6fe3ff"/><g fill="#63316d"><path d="m345.5 126.589844c1.25-1.226563 2.34375-2.605469 3.25-4.105469 2.984375 1.238281 6.410156-.105469 7.757812-3.039063 1.34375-2.933593.128907-6.410156-2.757812-7.859374-3.875-1.90625-5.886719-6.265626-4.816406-10.453126.820312-3.207031-1.109375-6.472656-4.316406-7.296874-3.207032-.824219-6.476563 1.101562-7.304688 4.308593-1.367188 5.359375-.578125 11.042969 2.199219 15.828125-.429688 1.53125-1.253907 2.921875-2.390625 4.035156-1.550782 1.496094-2.183594 3.707032-1.65625 5.796876.53125 2.085937 2.136718 3.730468 4.214844 4.308593 2.074218.574219 4.300781-.007812 5.828124-1.523437zm0 0"/><path d="m314.765625 72.820312c3.183594.761719 6.386719-1.167968 7.207031-4.335937.816406-3.167969-1.054687-6.40625-4.207031-7.28125-8.640625-2.210937-17.742187 1.242187-22.738281 8.628906-1.558594.273438-3.160156.132813-4.648438-.40625-1.289062-.457031-2.453125-1.203125-3.410156-2.179687-1.492188-1.546875-3.699219-2.175782-5.78125-1.648438-2.085938.527344-3.730469 2.128906-4.308594 4.195313-.582031 2.070312-.007812 4.292969 1.496094 5.828125 2.21875 2.277344 4.929688 4.019531 7.925781 5.089844 1.652344.597656 3.371094.984374 5.117188 1.152343.003906 1.339844.140625 2.675781.398437 3.988281.429688 2.09375 1.167969 4.109376 2.191406 5.984376 1.605469 2.875 5.226563 3.921874 8.117188 2.34375 2.886719-1.578126 3.964844-5.191407 2.414062-8.09375-.449218-.824219-.773437-1.710938-.964843-2.632813-.613281-3.070313.394531-6.242187 2.664062-8.398437 2.269531-2.160157 5.488281-3 8.523438-2.234376zm0 0"/><path d="m335.578125 198.0625c2.273437-2.351562 2.242187-6.09375-.070313-8.410156-2.316406-2.3125-6.058593-2.347656-8.414062-.074219-2.933594 2.949219-5.21875 6.480469-6.699219 10.371094-5.703125 2.734375-12.4375 2.183593-17.621093-1.4375-2.714844-1.878907-6.441407-1.207031-8.332032 1.5s-1.238281 6.433593 1.460938 8.339843c6.585937 4.609376 14.769531 6.324219 22.652344 4.753907.515624 5.941406 2.824218 11.585937 6.621093 16.1875 1.351563 1.683593 3.507813 2.511719 5.640625 2.164062 2.128906-.347656 3.910156-1.8125 4.660156-3.835937.753907-2.027344.355469-4.300782-1.035156-5.953125-1.136718-1.378907-2.058594-2.925781-2.730468-4.582031-1.476563-3.609376-1.695313-7.613282-.617188-11.359376.816406-2.894531 2.363281-5.53125 4.484375-7.664062zm0 0"/><path d="m154.800781 118.011719c-1.132812-1.113281-1.960937-2.503907-2.390625-4.035157 2.777344-4.785156 3.570313-10.46875 2.199219-15.832031-.828125-3.203125-4.097656-5.128906-7.304687-4.304687-3.203126.824218-5.136719 4.089844-4.316407 7.296875 1.070313 4.183593-.941406 8.546875-4.816406 10.449219-3.007813 1.382812-4.328125 4.9375-2.949219 7.949218 1.378906 3.007813 4.933594 4.328125 7.945313 2.953125.90625 1.5 2 2.878907 3.25 4.105469 2.371093 2.289062 6.144531 2.230469 8.449219-.125 2.304687-2.359375 2.277343-6.132812-.0625-8.453125zm0 0"/><path d="m177.148438 72.820312c3.035156-.765624 6.246093.074219 8.515624 2.226563 2.269532 2.152344 3.28125 5.316406 2.675782 8.382813-.1875.929687-.515625 1.824218-.96875 2.65625-1.050782 1.882812-1.011719 4.1875.105468 6.03125 1.117188 1.84375 3.136719 2.949218 5.292969 2.890624 2.15625-.058593 4.117188-1.269531 5.132813-3.171874 1.027344-1.878907 1.769531-3.90625 2.199218-6.007813.257813-1.304687.394532-2.632813.402344-3.964844 1.742188-.167969 3.457032-.554687 5.105469-1.148437 2.996094-1.070313 5.710937-2.816406 7.929687-5.097656 1.507813-1.535157 2.078126-3.757813 1.5-5.828126-.582031-2.066406-2.222656-3.667968-4.308593-4.195312-2.082031-.527344-4.289063.101562-5.785157 1.648438-.957031.976562-2.125 1.726562-3.414062 2.183593-1.488281.535157-3.085938.671875-4.644531.398438-4.996094-7.386719-14.09375-10.839844-22.734375-8.628907-3.152344.875-5.023438 4.113282-4.207032 7.285157.816407 3.167969 4.023438 5.09375 7.207032 4.332031zm0 0"/><path d="m189.140625 198.511719c-5.183594 3.621093-11.917969 4.171875-17.621094 1.433593-1.480469-3.886718-3.761719-7.417968-6.699219-10.367187-2.355468-2.273437-6.097656-2.238281-8.410156.074219-2.316406 2.316406-2.347656 6.058594-.074218 8.410156 2.125 2.132812 3.671874 4.773438 4.492187 7.671875 1.070313 3.746094.851563 7.746094-.625 11.351563-.667969 1.660156-1.589844 3.203124-2.726563 4.582031-2.058593 2.5625-1.675781 6.304687.863282 8.394531 2.539062 2.085938 6.285156 1.746094 8.402344-.769531 3.792968-4.601563 6.105468-10.246094 6.621093-16.1875 7.882813 1.566406 16.0625-.152344 22.652344-4.753907 2.699219-1.90625 3.351563-5.632812 1.460937-8.339843-1.890624-2.707031-5.617187-3.378907-8.332031-1.5zm0 0"/><path d="m440.171875 143.691406c1.109375 4.757813 3.535156 9.105469 7 12.554688 8.449219 8.4375 21.535156 10.097656 31.828125 4.042968 10.292969-6.058593 15.191406-18.304687 11.917969-29.792968-3.273438-11.484375-13.894531-19.304688-25.835938-19.027344-11.9375.28125-22.179687 8.59375-24.910156 20.222656h-54.03125c2.308594-8.226562 1.496094-17.011718-2.28125-24.671875h6.289063c14.695312-.015625 26.601562-11.925781 26.617187-26.621093.007813-8.066407 6.546875-14.601563 14.613281-14.609376h4.25c1.105469 4.757813 3.527344 9.105469 6.988282 12.550782 8.449218 8.457031 21.550781 10.132812 31.855468 4.078125 10.308594-6.058594 15.222656-18.316407 11.949219-29.816407-3.273437-11.496093-13.902344-19.332031-25.855469-19.054687-11.953125.28125-22.207031 8.601563-24.9375 20.238281h-4.25c-14.695312.007813-26.605468 11.917969-26.613281 26.613282-.007813 8.070312-6.546875 14.609374-14.617187 14.617187h-16.058594c-.710938-.554687-1.441406-1.085937-2.191406-1.585937-1.230469-.808594-2.507813-1.539063-3.828126-2.183594 3.972657-15.582032-.460937-32.109375-11.695312-43.613282-11.238281-11.503906-27.660156-16.320312-43.328125-12.710937 1.167969-11.425781-4.050781-22.566406-13.582031-28.976563-9.53125-6.410156-21.820313-7.042968-31.960938-1.652343-10.140625 5.394531-16.484375 15.9375-16.496094 27.421875v53.183594c-3.363281-.253907-6.738281-.253907-10.101562 0v-53.175782c.058594-11.535156-6.273438-22.152344-16.445312-27.589844-10.171876-5.433593-22.519532-4.796874-32.078126 1.660157-9.554687 6.453125-14.757812 17.667969-13.511718 29.136719-15.667969-3.574219-32.0625 1.257812-43.289063 12.75-11.230469 11.492187-15.675781 27.996093-11.738281 43.574218-1.320312.644532-2.597656 1.371094-3.824219 2.179688-.753906.5-1.484375 1.035156-2.195312 1.589844h-16.058594c-8.070313-.011719-14.609375-6.550782-14.617187-14.621094-.007813-14.695313-11.917969-26.605469-26.609376-26.609375h-4.253906c-2.738281-11.617188-12.976562-19.917969-24.910156-20.191407-11.929688-.273437-22.539062 7.550782-25.808594 19.027344-3.265625 11.480469 1.636719 23.714844 11.921875 29.765625 10.289063 6.050781 23.363281 4.386719 31.808594-4.046875 3.460937-3.449218 5.882813-7.796875 6.988281-12.554687h4.253906c8.066407.003906 14.601563 6.542969 14.609376 14.609375.015624 14.695312 11.925781 26.601562 26.617187 26.621094h6.292969c-3.78125 7.65625-4.59375 16.445312-2.289063 24.667968h-54.023437c-2.734375-11.625-12.972656-19.933594-24.910156-20.214844-11.9375-.277343-22.558594 7.542969-25.832032 19.027344-3.273437 11.480469 1.625 23.726563 11.917969 29.78125 10.289063 6.058594 23.371094 4.398438 31.824219-4.039062 3.460937-3.445313 5.886718-7.796875 7-12.554688h60.097656c.898438 1.152344 1.867188 2.25 2.902344 3.28125-6.421875 5.730469-11.109375 13.144532-13.542969 21.398438-14.46875.320312-26.039063 12.136718-26.054687 26.609375-.007813 8.066406-6.542969 14.605469-14.609376 14.609375h-4.253906c-1.105468-4.753906-3.527344-9.105469-6.984375-12.550782-8.453125-8.457031-21.550781-10.132812-31.859375-4.078124-10.308594 6.058593-15.222656 18.3125-11.949218 29.8125 3.269531 11.5 13.902343 19.335937 25.855468 19.058593 11.949219-.28125 22.203125-8.601562 24.9375-20.242187h4.253906c14.691407-.003906 26.601563-11.914063 26.609376-26.609375.011718-7.132813 5.171874-13.214844 12.207031-14.398438 0 .265625-.019531.535157-.019531.800781.050781 18.902344 11.574218 35.886719 29.121093 42.917969v10.320313c.003907 12.714844 6.6875 24.492187 17.605469 31.015625 10.914062 6.519531 24.453125 6.828125 35.648438.804687 10.777343 8.945313 25.753906 10.859375 38.429687 4.90625 12.675781-5.957031 20.769531-18.699218 20.765625-32.703125v-22.160156c1.679688.128906 3.367188.207031 5.050781.207031 1.6875 0 3.371094-.078125 5.050781-.207031v22.15625c-.003906 14.007813 8.089844 26.75 20.765626 32.703125 12.679687 5.953125 27.652343 4.042969 38.429687-4.902344 11.199219 6.019532 24.734375 5.714844 35.652344-.808594 10.914062-6.519531 17.597656-18.296874 17.601562-31.011718v-10.324219c17.542969-7.039063 29.0625-24.015625 29.121094-42.914063 0-.269531-.011719-.539062-.019531-.800781 7.039062 1.183594 12.195312 7.265625 12.207031 14.398438.007813 14.695312 11.917969 26.605469 26.613281 26.609375h4.25c2.734375 11.632812 12.984375 19.949218 24.929688 20.222656 11.945312.277344 22.570312-7.550781 25.839844-19.042969 3.273437-11.492187-1.636719-23.746093-11.9375-29.800781-10.300782-6.054688-23.394532-4.382812-31.84375 4.066406-3.460938 3.449219-5.878907 7.796875-6.984376 12.554688h-4.253906c-8.066406-.007813-14.605468-6.542969-14.613281-14.609375-.015625-14.472657-11.582031-26.285157-26.050781-26.609375-2.429688-8.253906-7.121094-15.667969-13.539063-21.398438 1.035157-1.03125 2.003907-2.128906 2.898438-3.28125zm15.476563-16.0625c4.800781-4.800781 12.320312-5.539062 17.964843-1.765625 5.644531 3.769531 7.835938 11.003907 5.238281 17.273438-2.597656 6.273437-9.265624 9.835937-15.921874 8.511719-6.65625-1.324219-11.453126-7.167969-11.453126-13.957032.003907-3.773437 1.503907-7.394531 4.171876-10.0625zm-4.550782-77.902344c4.804688-4.816406 12.339844-5.566406 18-1.792968 5.660156 3.773437 7.867188 11.019531 5.265625 17.304687-2.597656 6.285157-9.277343 9.859375-15.949219 8.535157-6.671874-1.324219-11.476562-7.179688-11.476562-13.980469 0-3.773438 1.496094-7.394531 4.160156-10.066407zm-410.28125 20.132813c-4.804687 4.816406-12.34375 5.566406-18.003906 1.792969-5.65625-3.773438-7.863281-11.023438-5.261719-17.308594 2.597657-6.285156 9.277344-9.859375 15.949219-8.535156 6.671875 1.324218 11.476562 7.179687 11.476562 13.984375 0 3.773437-1.496093 7.390625-4.160156 10.066406zm-4.550781 77.898437c-4.800781 4.796876-12.320313 5.539063-17.964844 1.765626-5.640625-3.773438-7.835937-11.003907-5.238281-17.277344 2.597656-6.269532 9.265625-9.832032 15.921875-8.507813s11.453125 7.164063 11.453125 13.953125c-.003906 3.773438-1.503906 7.394532-4.171875 10.0625zm4.550781 77.898438c-4.804687 4.816406-12.339844 5.570312-18 1.796875s-7.863281-11.019531-5.265625-17.304687c2.597657-6.289063 9.277344-9.863282 15.949219-8.539063 6.671875 1.328125 11.476562 7.179687 11.476562 13.980469 0 3.773437-1.496093 7.394531-4.160156 10.066406zm410.28125-20.128906c4.804688-4.816406 12.34375-5.566406 18.003906-1.792969 5.660157 3.773437 7.863282 11.019531 5.265626 17.304687-2.601563 6.289063-9.28125 9.863282-15.953126 8.535157-6.671874-1.324219-11.476562-7.179688-11.476562-13.984375 0-3.773438 1.496094-7.390625 4.160156-10.0625zm-246.320312 57.246094c-4.738282-.007813-9.371094-1.402344-13.324219-4.019532 5.949219-6.632812 9.25-15.222656 9.273437-24.132812 0-3.3125-2.683593-6-6-6-3.3125 0-6 2.6875-6 6-.019531 7.667968-3.664062 14.875-9.824218 19.4375-7.335938 5.390625-17.074219 6.203125-25.195313 2.09375-8.121093-4.105469-13.246093-12.429688-13.25-21.53125v-7.363282c1.675781.195313 3.363281.292969 5.050781.300782 3.3125 0 6-2.683594 6-6 0-3.3125-2.6875-6-6-6-9.066406.011718-17.765624-3.585938-24.179687-10-6.410156-6.410156-10.003906-15.109375-9.992187-24.179688 0-2.003906.175781-4 .519531-5.976562 2.894531-16.3125 17.082031-28.199219 33.652343-28.191406 3.3125 0 6-2.6875 6-6s-2.6875-6-6-6c-7.121093.003906-14.144531 1.65625-20.523437 4.828124-1.828125-1.46875-3.417969-3.207031-4.71875-5.160156-.085937-.121094-.164063-.246094-.253906-.390625-6.59375-10.4375-3.640625-24.230469 6.644531-31.058593.53125-.351563 1.082031-.679688 1.640625-.984376.109375.199219.21875.398438.332031.597657 1.664063 2.867187 5.335938 3.839843 8.199219 2.179687 2.867187-1.664062 3.84375-5.335937 2.179687-8.203125-.835937-1.441406-1.558593-2.945312-2.167968-4.492187-1.597656-4.007813-2.410156-8.28125-2.398438-12.597656-.003906-12.046876 6.335938-23.203126 16.6875-29.367188 10.351563-6.160156 23.183594-6.417969 33.773438-.671875 1.390625.753906 2.730468 1.601563 4.003906 2.542969 2.671875 1.960937 6.429688 1.382812 8.390625-1.289063s1.382813-6.425781-1.289063-8.386719c-1.015624-.746093-2.050781-1.4375-3.089843-2.082031-3.726563-7.019531-2.714844-15.617187 2.539062-21.582031 5.257813-5.964844 13.65625-8.054688 21.09375-5.246094s12.359375 9.925782 12.355469 17.878906v55.207032c-28.871094 7.722656-48.949219 33.875-48.949219 63.761718 0 29.882813 20.078125 56.039063 48.949219 63.757813v24.191406c-.015625 13.320313-10.808594 24.113281-24.128906 24.128907zm31.226562-59c-29.296875-5.515626-48.582031-33.726563-43.089844-63.027344 5.492188-29.300782 33.6875-48.609375 62.992188-43.140625h.003906c25.542969 4.792969 44.050782 27.097656 44.050782 53.085937-.003907 25.988282-18.511719 48.292969-44.054688 53.082032-6.578125 1.21875-13.324219 1.21875-19.902344 0zm144.054688-28.375c.34375 1.976562.519531 3.976562.519531 5.984374.011719 9.066407-3.582031 17.765626-9.996094 24.179688-6.410156 6.410156-15.109375 10.007812-24.175781 10-3.3125 0-6 2.683594-6 6 0 3.3125 2.6875 6 6 6 1.6875-.007812 3.375-.109375 5.050781-.300781v7.363281c0 13.328125-10.804687 24.132812-24.136719 24.132812-13.328124 0-24.132812-10.804687-24.132812-24.132812 0-3.316406-2.6875-6-6-6-3.316406 0-6 2.683594-6 6 .023438 8.910156 3.324219 17.496094 9.273438 24.128906-7.40625 4.914063-16.914063 5.351563-24.742188 1.148438-7.832031-4.203125-12.714844-12.375-12.710938-21.261719v-24.1875c28.871094-7.722656 48.949219-33.875 48.949219-63.761719 0-29.882812-20.078125-56.039062-48.949219-63.761718v-55.207032c-.003906-7.953125 4.917969-15.074218 12.355469-17.886718 7.441407-2.808594 15.839844-.71875 21.097657 5.25 5.253906 5.96875 6.265624 14.566406 2.535156 21.589843-1.042969.644531-2.074219 1.335938-3.089844 2.078125-2.671875 1.960938-3.246094 5.714844-1.285156 8.386719 1.960937 2.671875 5.714844 3.25 8.386718 1.289063 12.277344-9.054688 29.070313-8.878907 41.15625.433593 12.082032 9.316407 16.53125 25.507813 10.902344 39.6875-.609375 1.542969-1.328125 3.035157-2.160156 4.46875-1.664062 2.867188-.6875 6.539063 2.179688 8.203125 2.863281 1.660156 6.539062.6875 8.199218-2.179687.117188-.199219.222656-.398438.335938-.597657.554687.304688 1.105468.632813 1.636718.984376 10.292969 6.832031 13.238282 20.640624 6.632813 31.078124-.078125.125-.15625.25-.273437.425782-1.292969 1.929687-2.875 3.652344-4.6875 5.105468-6.375-3.171874-13.398438-4.824218-20.523438-4.828124-3.3125 0-6 2.6875-6 6s2.6875 6 6 6c16.570312-.003907 30.753906 11.875 33.652344 28.1875zm0 0"/><path d="m232.613281 169.847656c1.90625-2.707031 1.257813-6.449218-1.449219-8.359375l-15.3125-10.796875 15.3125-10.800781c2.707032-1.910156 3.355469-5.652344 1.449219-8.359375-1.910156-2.710938-5.65625-3.355469-8.363281-1.449219l-22.269531 15.703125c-1.59375 1.121094-2.542969 2.953125-2.542969 4.902344s.949219 3.78125 2.542969 4.902344l22.269531 15.703125c2.707031 1.90625 6.453125 1.261719 8.363281-1.449219zm0 0"/><path d="m255.582031 109.847656c-3.226562-.753906-6.453125 1.253906-7.207031 4.480469l-16.339844 70c-.753906 3.226563 1.25 6.453125 4.476563 7.207031 3.230469.753906 6.457031-1.253906 7.207031-4.480468l16.339844-70c.753906-3.226563-1.25-6.453126-4.476563-7.207032zm0 0"/><path d="m259.304688 131.535156c-1.910157 2.707032-1.261719 6.453125 1.445312 8.359375l15.3125 10.796875-15.3125 10.800782c-2.707031 1.910156-3.355469 5.652343-1.445312 8.359374 1.90625 2.710938 5.652343 3.355469 8.359374 1.449219l22.269532-15.699219c1.59375-1.125 2.542968-2.953124 2.542968-4.90625 0-1.949218-.949218-3.78125-2.542968-4.902343l-22.269532-15.703125c-2.707031-1.910156-6.449218-1.261719-8.359374 1.445312zm0 0"/></g></svg>