<svg height="435pt" viewBox="0 -11 435.5 435" width="435pt" xmlns="http://www.w3.org/2000/svg"><path d="m429.398438 266.449219v26.699219c0 16.203124-13.097657 29.203124-29.199219 29.300781h-364.898438c-16.199219 0-29.199219-13.097657-29.300781-29.199219v-26.699219h423.398438zm0 0" fill="#e48e66"/><path d="m355.199219 62.851562c0 10.5 8.5 19.097657 19.101562 19.097657 10.5 0 19.097657-8.5 19.097657-19.097657 0-10.5-8.5-19.101562-19.097657-19.101562-5.101562 0-9.902343 2-13.5 5.601562-3.601562 3.597657-5.601562 8.5-5.601562 13.5zm0 147c0 10.5 8.5 19.097657 19.101562 19.097657 10.5 0 19.097657-8.5 19.097657-19.097657 0-10.5-8.5-19.101562-19.097657-19.101562-5.101562 0-9.902343 2-13.5 5.601562-3.601562 3.597657-5.601562 8.398438-5.601562 13.5zm4.300781-73.5c0 10.5 8.5 19.097657 19.101562 19.097657 10.5 0 19.097657-8.5 19.097657-19.097657 0-10.5-8.5-19.101562-19.097657-19.101562-5.101562 0-9.902343 2-13.5 5.601562-3.601562 3.597657-5.601562 8.398438-5.601562 13.5zm-283.601562 0c0-10.5-8.5-19.101562-19.097657-19.101562-10.5 0-19.101562 8.5-19.101562 19.101562 0 10.5 8.5 19.097657 19.101562 19.097657 5.097657 0 9.898438-2 13.5-5.597657 3.597657-3.601562 5.597657-8.402343 5.597657-13.5zm4.300781 73.5c0-10.5-8.5-19.101562-19.097657-19.101562-10.601562 0-19.101562 8.5-19.101562 19.101562 0 10.5 8.5 19.097657 19.101562 19.097657 5.097657 0 9.898438-2 13.5-5.597657 3.597657-3.601562 5.597657-8.5 5.597657-13.5zm0-147c0-10.5-8.5-19.101562-19.097657-19.101562-10.601562 0-19.101562 8.5-19.101562 19.101562 0 10.597657 8.5 19.097657 19.101562 19.097657 5.097657 0 9.898438-2 13.5-5.597657 3.597657-3.5 5.597657-8.402343 5.597657-13.5zm59.800781 38.898438c-3.699219 8.300781-6.101562 17.199219-6.898438 26.300781-.300781 2.800781-.402343 5.597657-.402343 8.300781 0 46.898438 38 84.898438 84.902343 84.898438 43.597657 0 80.199219-33.101562 84.5-76.5.296876-2.800781.398438-5.601562.398438-8.300781 0-46.898438-38-84.898438-84.898438-84.898438-33.5-.101562-63.902343 19.597657-77.601562 50.199219zm289.398438-66.199219v231h-423.398438v-231c0-16.199219 13.101562-29.300781 29.300781-29.300781h364.898438c16.101562 0 29.199219 13.101562 29.199219 29.300781 0-.101562 0-.101562 0 0zm0 0" fill="#f8ec7d"/><path d="m359.5 136.351562c0-10.5 8.5-19.101562 19.101562-19.101562 10.5 0 19.097657 8.5 19.097657 19.101562 0 10.5-8.5 19.097657-19.097657 19.097657-5.101562 0-9.902343-2-13.5-5.597657-3.601562-3.601562-5.601562-8.402343-5.601562-13.5zm0 0" fill="#6fe3ff"/><path d="m355.199219 62.851562c0-10.5 8.5-19.101562 19.101562-19.101562 10.5 0 19.097657 8.5 19.097657 19.101562 0 10.5-8.5 19.097657-19.097657 19.097657-5.101562 0-9.902343-2-13.5-5.597657-3.601562-3.5-5.601562-8.402343-5.601562-13.5zm0 0" fill="#6fe3ff"/><path d="m355.199219 209.851562c0-10.5 8.5-19.101562 19.101562-19.101562 10.597657 0 19.097657 8.5 19.097657 19.101562 0 10.5-8.5 19.097657-19.097657 19.097657-5.101562 0-9.902343-2-13.5-5.597657-3.601562-3.601562-5.601562-8.5-5.601562-13.5zm0 0" fill="#6fe3ff"/><path d="m140.101562 101.75c19.097657-42.800781 69.296876-62 112.097657-42.898438 30.601562 13.597657 50.300781 44 50.300781 77.5 0 2.796876-.101562 5.5-.398438 8.296876-4.601562 46.601562-46.101562 80.703124-92.800781 76.101562-43.402343-4.300781-76.5-40.800781-76.5-84.5 0-2.800781.097657-5.5.398438-8.300781.800781-9 3.101562-17.898438 6.902343-26.199219zm0 0" fill="#e48e66"/><path d="m161.800781 322.449219h111.898438v83.800781h-111.898438zm0 0" fill="#6fe3ff"/><path d="m205.699219 112.449219 8.199219 28.902343h-16.398438zm0 0" fill="#e48e66"/><path d="m80.199219 62.851562c0 10.5-8.5 19.097657-19.097657 19.097657-10.601562 0-19.101562-8.5-19.101562-19.097657 0-10.5 8.5-19.101562 19.101562-19.101562 5.097657 0 9.898438 2 13.5 5.601562 3.597657 3.597657 5.597657 8.5 5.597657 13.5zm0 0" fill="#6fe3ff"/><path d="m80.199219 209.851562c0 10.5-8.5 19.097657-19.097657 19.097657-10.5 0-19.101562-8.5-19.101562-19.097657 0-10.5 8.5-19.101562 19.101562-19.101562 5.097657 0 9.898438 2 13.5 5.601562 3.597657 3.597657 5.597657 8.398438 5.597657 13.5zm0 0" fill="#6fe3ff"/><path d="m75.898438 136.351562c0 10.5-8.5 19.097657-19.097657 19.097657-10.5 0-19.101562-8.5-19.101562-19.097657 0-10.5 8.5-19.101562 19.101562-19.101562 5.097657 0 9.898438 2 13.5 5.601562 3.597657 3.597657 5.597657 8.398438 5.597657 13.5zm0 0" fill="#6fe3ff"/><g fill="#63316d"><path d="m400.101562.25h-364.800781c-19.5 0-35.199219 15.800781-35.300781 35.300781v257.699219c0 19.5 15.800781 35.199219 35.300781 35.300781h120.398438v71.699219h-27.898438c-3.300781 0-6 2.699219-6 6s2.699219 6 6 6h185c3.300781 0 6-2.699219 6-6s-2.699219-6-6-6h-33.101562v-71.800781h120.5c19.5 0 35.199219-15.800781 35.300781-35.300781v-257.699219c-.101562-19.398438-15.898438-35.199219-35.398438-35.199219zm-132.402343 400h-100v-71.800781h100zm155.699219-107.101562c0 12.800781-10.398438 23.203124-23.296876 23.300781h-364.800781c-12.800781 0-23.199219-10.398438-23.300781-23.300781v-20.699219h411.398438zm0-32.699219h-411.398438v-225c0-12.800781 10.398438-23.199219 23.300781-23.199219h364.898438c12.800781 0 23.199219 10.398438 23.300781 23.300781v224.898438zm0 0"/><path d="m232.398438 160.148438-18.296876-59.597657c-1-3.300781-5-4.5-8.402343-4.5-3.199219 0-7.300781 1.199219-8.300781 4.5l-18.199219 59.300781c-.097657.398438-.199219.699219-.199219 1.097657 0 3.5 4.800781 5.601562 8.199219 5.601562 3.199219 0 4.300781-1.5 4.601562-2.800781l3.5-12.199219h20.800781l3.5 12.199219c.398438 1.300781 1.398438 2.800781 4.699219 2.800781s8.199219-2.199219 8.199219-5.601562c0-.300781 0-.597657-.101562-.800781zm-34.199219-19.296876 7.5-26.601562 7.5 26.601562zm0 0"/><path d="m244.699219 96.550781c-4 0-6.597657 1.699219-6.597657 4.300781v61.296876c0 3 3.398438 4.402343 6.597657 4.402343 3.300781 0 6.601562-1.5 6.601562-4.402343v-61.296876c0-3-3.300781-4.300781-6.601562-4.300781zm0 0"/><path d="m368.300781 185.449219c-9 2.199219-16.101562 9.300781-18.300781 18.300781h-3.699219c-7.402343 0-13.402343-6-13.402343-13.398438 0-14-11.398438-25.402343-25.398438-25.402343h-3.5c2.101562-6.398438 3.5-13 4.199219-19.699219.101562-1 .199219-2 .199219-2.898438h46c1.101562 4.5 3.402343 8.5 6.601562 11.796876 9.800781 9.800781 25.699219 9.703124 35.398438-.097657 9.800781-9.800781 9.800781-25.699219 0-35.402343-9.796876-9.699219-25.699219-9.796876-35.398438 0-3.199219 3.203124-5.5 7.300781-6.601562 11.703124h-46c-.5-7.703124-2-15.300781-4.398438-22.601562h3.5c14 0 25.398438-11.398438 25.398438-25.398438 0-7.402343 6-13.402343 13.402343-13.402343h3.699219c3.300781 13.402343 16.898438 21.699219 30.300781 18.300781 13.398438-3.300781 21.699219-16.898438 18.300781-30.300781-3.300781-13.5-16.902343-21.699219-30.300781-18.398438-9 2.199219-16.101562 9.300781-18.300781 18.300781h-3.699219c-14.101562 0-25.402343 11.398438-25.402343 25.398438 0 7.398438-6 13.398438-13.398438 13.398438h-8.5c-22.398438-44.898438-77-63.097657-121.898438-40.699219-17.601562 8.800781-31.902343 23.101562-40.703124 40.699219h-8.199219c-7.398438 0-13.398438-6-13.398438-13.398438 0-14-11.402343-25.398438-25.402343-25.398438h-3.699219c-3.300781-13.402343-16.898438-21.601562-30.300781-18.300781-13.398438 3.300781-21.597657 16.898438-18.296876 30.300781 3.296876 13.398438 16.898438 21.597657 30.296876 18.296876 9-2.199219 16.101562-9.296876 18.300781-18.296876h3.699219c7.402343 0 13.402343 6 13.402343 13.398438 0 14.101562 11.398438 25.398438 25.398438 25.398438h3.300781c-2.101562 6.402343-3.5 13-4.199219 19.703124-.101562 1-.199219 2-.199219 2.898438h-45.800781c-3.300781-13.5-16.902343-21.699219-30.402343-18.398438-13.5 3.296876-21.699219 16.898438-18.398438 30.398438 2.800781 11.199219 12.800781 19.101562 24.398438 19.101562 6.601562 0 13-2.601562 17.703124-7.300781 3.296876-3.199219 5.5-7.300781 6.597657-11.699219h45.800781c.5 7.699219 2 15.296876 4.398438 22.597657h-3.199219c-14 0-25.398438 11.402343-25.398438 25.402343 0 7.398438-6 13.398438-13.402343 13.398438h-3.699219c-3.300781-13.398438-16.898438-21.699219-30.300781-18.300781-13.398438 3.300781-21.699219 16.902343-18.296876 30.300781 3.296876 13.398438 16.898438 21.699219 30.296876 18.300781 9-2.199219 16.101562-9.300781 18.300781-18.300781h3.699219c14.101562 0 25.402343-11.398438 25.402343-25.398438 0-7.402343 6-13.402343 13.398438-13.402343h8.199219c14 28 41.300781 46.800781 72.402343 49.800781 3 .300781 6.097657.5 9.097657.398438 34.402343-.097657 65.800781-19.5 81.203124-50.296876h8.5c7.398438 0 13.398438 6 13.398438 13.398438 0 14 11.398438 25.398438 25.398438 25.398438h3.703124c3.296876 13.402343 16.898438 21.703124 30.296876 18.300781 13.402343-3.300781 21.601562-16.898438 18.300781-30.300781-3.398438-13.296876-17-21.5-30.398438-18.199219zm1-58.300781s.097657 0 0 0c2.597657-2.597657 5.898438-3.898438 9.300781-3.898438 3.398438 0 6.699219 1.300781 9.296876 3.800781 5.101562 5.097657 5.101562 13.398438 0 18.5-5.097657 5.097657-13.398438 5.097657-18.5 0-5.199219-5-5.199219-13.300781-.097657-18.402343zm-4.199219-73.5c5.097657-5.097657 13.398438-5.097657 18.5 0 5.097657 5.101562 5.097657 13.402343 0 18.5-5.101562 5.101562-13.402343 5.101562-18.5 0-5.101562-5.097657-5.101562-13.398438 0-18.5zm-304 22.402343c-7.203124 0-13.101562-5.902343-13.101562-13.101562s5.898438-13.097657 13.101562-13.097657c7.199219 0 13.097657 5.898438 13.097657 13.097657s-5.898438 13.101562-13.097657 13.101562zm4.898438 69.597657c-5.101562 5.101562-13.398438 5.101562-18.5 0-5.101562-5.097657-5.101562-13.296876-.101562-18.5 0 0 0 0 .101562-.097657 5.101562-5.101562 13.398438-5.101562 18.5 0 5.199219 5.199219 5.101562 13.5 0 18.597657zm4.300781 73.402343c-5.101562 5.097657-13.402343 5.097657-18.5 0-5.101562-5.101562-5.101562-13.402343 0-18.5 5.097657-5.101562 13.398438-5.101562 18.5 0 5.097657 5.097657 5.097657 13.398438 0 18.5zm225.800781-74.902343c-4.300781 43.300781-42.902343 75-86.203124 70.800781-40.398438-4-71.097657-37.898438-71.097657-78.5 0-2.5.097657-5.097657.398438-7.699219 3.902343-40.398438 37.902343-71.101562 78.402343-71.101562 2.597657 0 5.199219.101562 7.796876.402343 28.203124 2.800781 52.703124 20.5 64.300781 46.300781 4.5 10.097657 6.902343 21.097657 6.800781 32.097657 0 2.5-.199219 5.101562-.398438 7.699219zm87.5 74.902343c-5.101562 5.097657-13.402343 5.097657-18.5 0-2.5-2.402343-3.800781-5.800781-3.800781-9.300781s1.398438-6.800781 3.800781-9.300781c5.097657-5.097657 13.398438-5.097657 18.5 0 5.097657 5.199219 5.097657 13.5 0 18.601562zm0 0"/></g></svg>