<svg height="480pt" viewBox="0 -19 480.45835 480" width="480pt" xmlns="http://www.w3.org/2000/svg"><path d="m447.546875 123.507812c0-7.429687 6.027344-13.449218 13.457031-13.449218 7.429688 0 13.449219 6.023437 13.453125 13.453125 0 7.429687-6.023437 13.453125-13.453125 13.457031-3.570312.003906-6.992187-1.414062-9.519531-3.9375-2.523437-2.527344-3.941406-5.953125-3.9375-9.523438zm0 0" fill="#6fe3ff"/><path d="m456.40625 238.390625c7.429688-.003906 13.457031 6.015625 13.460938 13.449219 0 7.429687-6.019532 13.457031-13.453126 13.460937-7.429687 0-13.457031-6.019531-13.457031-13.453125-.003906-7.429687 6.019531-13.453125 13.449219-13.457031zm0 0" fill="#6fe3ff"/><path d="m430.855469 318.949219c-.003907-7.429688 6.019531-13.457031 13.449219-13.460938 7.433593 0 13.457031 6.019531 13.460937 13.449219.003906 7.433594-6.019531 13.457031-13.449219 13.460938-7.433594.003906-13.460937-6.019532-13.460937-13.449219zm0 0" fill="#6fe3ff"/><path d="m415.457031 176.121094c0-7.429688 6.027344-13.453125 13.457031-13.453125 7.429688.003906 13.449219 6.023437 13.453126 13.453125 0 7.429687-6.023438 13.457031-13.453126 13.457031-7.429687 0-13.457031-6.027344-13.457031-13.457031zm0 0" fill="#6fe3ff"/><path d="m360.234375 364.230469v32c0 22.089843-17.90625 40-40 40h-160c-22.089844 0-40-17.910157-40-40v-32zm-105 36c0-8.285157-6.714844-15-15-15-8.28125 0-15 6.714843-15 15 0 8.28125 6.71875 15 15 15 8.285156-.003907 15-6.71875 15-15zm0 0" fill="#e48e66"/><path d="m120.234375 229.21875v-182.988281c0-22.09375 17.910156-40 40-40h160c22.09375 0 40 17.90625 40 40v318h-240zm209.5625.839844c4.875-49.460938-31.269531-93.511719-80.730469-98.390625-49.464844-4.875-93.511718 31.269531-98.390625 80.730469-4.875 49.464843 31.269531 93.515624 80.730469 98.390624s93.511719-31.269531 98.390625-80.730468zm0 0" fill="#f8ec7d"/><path d="m249.066406 131.667969c49.460938 4.878906 85.605469 48.929687 80.730469 98.390625-4.878906 49.460937-48.929687 85.605468-98.390625 80.730468-49.464844-4.878906-85.605469-48.925781-80.730469-98.390624 4.878907-49.460938 48.929688-85.601563 98.390625-80.730469zm0 0" fill="#6fe3ff"/><path d="m255.234375 400.230469c0 8.28125-6.714844 15-15 15-8.28125 0-15-6.71875-15-15 0-8.285157 6.71875-15 15-15 8.285156 0 15 6.714843 15 15zm0 0" fill="#f8ec7d"/><path d="m227.6875 196.027344 8.699219 30.703125h-17.402344zm0 0" fill="#6fe3ff"/><path d="m65.015625 176.121094c-.003906 7.429687-6.027344 13.449218-13.457031 13.449218-7.429688-.003906-13.453125-6.023437-13.453125-13.453124 0-7.429688 6.019531-13.457032 13.449219-13.457032 7.433593 0 13.457031 6.027344 13.460937 13.460938zm0 0" fill="#6fe3ff"/><path d="m49.617188 318.949219c-.003907 7.429687-6.027344 13.449219-13.457032 13.449219-7.429687 0-13.453125-6.023438-13.453125-13.453126-.003906-7.429687 6.019531-13.453124 13.449219-13.457031 3.570312 0 6.996094 1.414063 9.519531 3.941407 2.527344 2.523437 3.941407 5.949218 3.941407 9.519531zm0 0" fill="#6fe3ff"/><path d="m24.066406 238.390625c7.429688 0 13.449219 6.027344 13.449219 13.457031 0 7.429688-6.023437 13.449219-13.453125 13.453125-7.429688 0-13.453125-6.023437-13.457031-13.453125 0-7.433594 6.027343-13.460937 13.460937-13.457031zm0 0" fill="#6fe3ff"/><path d="m32.925781 123.507812c.003907 7.433594-6.019531 13.457032-13.449219 13.460938-7.433593.003906-13.457031-6.019531-13.460937-13.449219-.003906-7.429687 6.019531-13.457031 13.449219-13.460937 7.433594-.003906 13.460937 6.019531 13.460937 13.449218zm0 0" fill="#6fe3ff"/><g fill="#63316d"><path d="m386.644531 153.320312c9.9375.011719 18.53125-6.914062 20.632813-16.625.929687-4.183593 4.625-7.164062 8.910156-7.1875h26.316406c2.949219 9.105469 12.085938 14.710938 21.539063 13.214844s16.414062-9.644531 16.414062-19.214844c0-9.570312-6.960937-17.71875-16.414062-19.210937-9.453125-1.496094-18.589844 4.109375-21.539063 13.210937h-26.316406c-9.917969.046876-18.480469 6.949219-20.632812 16.628907-.902344 4.195312-4.617188 7.191406-8.910157 7.183593h-20.410156v-95.089843c-.027344-25.394531-20.605469-45.972657-46-46h-160c-25.390625.027343-45.96875 20.605469-46 46v95.089843h-20.410156c-4.289063.011719-8-2.980468-8.90625-7.175781-2.148438-9.683593-10.714844-16.589843-20.632813-16.636719h-26.316406c-2.953125-9.105468-12.089844-14.710937-21.546875-13.21875-9.457031 1.496094-16.421875 9.644532-16.421875 19.21875 0 9.574219 6.964844 17.726563 16.421875 19.222657 9.457031 1.492187 18.59375-4.113281 21.546875-13.222657h26.316406c4.285156.023438 7.984375 3.011719 8.910156 7.195313 2.105469 9.707031 10.699219 16.628906 20.628907 16.617187h20.410156v41.640626h-2.058594c-5.726562.003906-10.894531-3.441407-13.09375-8.730469-4.054687-9.765625-13.59375-16.125-24.167969-16.109375h-4.855468c-2.953125-9.109375-12.089844-14.71875-21.550782-13.222656-9.457031 1.492187-16.421874 9.644531-16.421874 19.222656 0 9.574218 6.964843 17.726562 16.421874 19.21875 9.460938 1.496094 18.597657-4.113282 21.550782-13.21875h4.855468c5.730469-.007813 10.898438 3.4375 13.09375 8.730468 4.066407 9.753907 13.597657 16.109376 24.167969 16.109376h2.058594v16.230468l-24.457031-.113281c-10.089844-.003906-19.367188 5.523437-24.164063 14.402344-2.695312 4.996093-7.910156 8.109375-13.585937 8.109375h-9.5625c-3.089844-9.042969-12.300782-14.492188-21.714844-12.851563-9.414062 1.636719-16.234375 9.878907-16.089844 19.433594.148438 9.554687 7.222656 17.585937 16.683594 18.933594 9.460938 1.347656 18.496094-4.382813 21.304688-13.515625h9.378906c10.082031 0 19.355468-5.53125 24.148437-14.40625 2.691407-4.988282 7.902344-8.097656 13.574219-8.097656l24.484375.113281v42.550781h-2.347656c-13.539063 0-25.457031 8.917969-29.277344 21.90625-2.347656 7.859375-9.5625 13.257812-17.761719 13.292969h-10.1875c-2.953125-9.105469-12.089844-14.707031-21.542968-13.214844-9.453126 1.496094-16.414063 9.644531-16.414063 19.214844 0 9.570312 6.960937 17.71875 16.414063 19.214843 9.453124 1.492188 18.589843-4.109374 21.542968-13.214843h10.1875c13.519532-.058594 25.40625-8.957031 29.277344-21.910157 2.320312-7.878906 9.550781-13.289062 17.761719-13.289062h2.347656v106.480469c.03125 25.390625 20.609375 45.96875 46 46h160c25.394531-.03125 45.972656-20.609375 46-46v-106.480469h2.351563c8.214843 0 15.445312 5.414062 17.765624 13.292969 3.867188 12.953125 15.757813 21.847656 29.273438 21.90625h10.1875c2.953125 9.105469 12.09375 14.714843 21.546875 13.21875 9.457031-1.492188 16.421875-9.644531 16.421875-19.21875s-6.964844-17.726563-16.421875-19.21875c-9.453125-1.496094-18.59375 4.113281-21.546875 13.21875h-10.1875c-8.199219-.035157-15.410156-5.429688-17.761719-13.285157-3.816406-12.992187-15.738281-21.914062-29.277343-21.914062h-2.351563v-42.558594l24.460937-.113281c5.675782-.003906 10.898438 3.105469 13.601563 8.097656 4.785156 8.878907 14.0625 14.414063 24.148437 14.414063h9.375c2.8125 9.167968 11.878907 14.925781 21.371094 13.578125 9.492188-1.347657 16.59375-9.40625 16.742188-18.992188.148437-9.589843-6.699219-17.859375-16.148438-19.5-9.449218-1.640625-18.683594 3.835938-21.777344 12.914063h-9.5625c-5.679687 0-10.898437-3.117188-13.59375-8.117188-4.800781-8.878906-14.089843-14.40625-24.183593-14.394531l-24.433594.113281v-16.230468h2.0625c10.570313 0 20.101563-6.355469 24.167969-16.109376 2.195312-5.292968 7.363281-8.738281 13.089844-8.730468h4.859374c2.949219 9.105468 12.089844 14.714844 21.546876 13.21875 9.457031-1.492188 16.421874-9.644532 16.421874-19.21875 0-9.578125-6.964843-17.730469-16.421874-19.222656-9.457032-1.496094-18.597657 4.113281-21.546876 13.222656h-4.859374c-10.570313-.015625-20.113282 6.34375-24.164063 16.109375-2.199219 5.289062-7.367187 8.734375-13.09375 8.730469h-2.0625v-41.640626zm74.359375-37.261718c4.121094.003906 7.453125 3.34375 7.453125 7.460937-.003906 4.117188-3.34375 7.453125-7.460937 7.449219-4.117188-.003906-7.453125-3.34375-7.449219-7.460938.003906-4.113281 3.34375-7.449218 7.457031-7.449218zm-441.539062 14.910156c-4.113282-.003906-7.449219-3.339844-7.449219-7.457031 0-4.113281 3.335937-7.453125 7.453125-7.453125s7.453125 3.335937 7.457031 7.449218c0 4.121094-3.339843 7.460938-7.460937 7.460938zm32.089844 52.609375c-4.117188 0-7.457032-3.339844-7.457032-7.457031 0-4.121094 3.339844-7.460938 7.457032-7.460938 4.121093 0 7.460937 3.339844 7.460937 7.460938-.003906 4.117187-3.339844 7.457031-7.460937 7.457031zm-27.488282 75.722656c-4.121094 0-7.460937-3.335937-7.460937-7.453125 0-4.121094 3.339843-7.460937 7.457031-7.457031 4.117188 0 7.457031 3.339844 7.453125 7.457031-.007813 4.113282-3.339844 7.445313-7.449219 7.453125zm12.089844 67.097657c-4.117188-.003907-7.453125-3.34375-7.449219-7.460938 0-4.117188 3.339844-7.449219 7.457031-7.449219 4.117188.003907 7.453126 3.34375 7.453126 7.460938-.003907 4.117187-3.34375 7.449219-7.460938 7.449219zm408.160156-14.910157c4.117188.003907 7.449219 3.339844 7.449219 7.457031 0 4.117188-3.335937 7.453126-7.453125 7.453126s-7.453125-3.332032-7.457031-7.449219c.003906-4.121094 3.339843-7.457031 7.460937-7.460938zm12.089844-67.097656c4.117188-.003906 7.457031 3.332031 7.460938 7.449219 0 4.117187-3.335938 7.457031-7.453126 7.460937-4.117187 0-7.457031-3.335937-7.457031-7.453125.003907-4.113281 3.335938-7.449218 7.449219-7.457031zm-27.492188-75.730469c4.121094 0 7.460938 3.339844 7.460938 7.460938 0 4.117187-3.339844 7.457031-7.460938 7.457031-4.117187 0-7.457031-3.339844-7.457031-7.457031 0-4.121094 3.339844-7.460938 7.457031-7.460938zm-268.679687-156.429687h160c18.769531.019531 33.980469 15.230469 34 34v14h-14c-3.3125 0-6 2.683593-6 6 0 3.3125 2.6875 6 6 6h14v286h-228v-286h163c3.316406 0 6-2.6875 6-6 0-3.316407-2.683594-6-6-6h-163v-14c.023437-18.769531 15.234375-33.980469 34-34zm160 418h-160c-18.765625-.023438-33.976563-15.230469-34-34v-26h228v26c-.019531 18.769531-15.230469 33.976562-34 34zm0 0"/><path d="m308.925781 72.230469h11.121094c3.3125 0 6-2.6875 6-6 0-3.316407-2.6875-6-6-6h-11.121094c-3.3125 0-6 2.683593-6 6 0 3.3125 2.6875 6 6 6zm0 0"/><path d="m240.234375 379.230469c-11.597656 0-21 9.402343-21 21 0 11.597656 9.402344 21 21 21s21-9.402344 21-21c-.011719-11.59375-9.40625-20.988281-21-21zm0 30c-4.96875 0-9-4.03125-9-9 0-4.972657 4.03125-9 9-9 4.972656 0 9 4.027343 9 9-.003906 4.96875-4.03125 8.992187-9 9zm0 0"/><path d="m249.65625 125.699219c-52.761719-5.203125-99.75 33.351562-104.949219 86.109375-5.203125 52.761718 33.351563 99.75 86.109375 104.949218 3.214844.320313 6.414063.476563 9.601563.476563 51.144531-.105469 93.226562-40.289063 95.691406-91.375 2.460937-51.085937-35.558594-95.132813-86.453125-100.160156zm74.167969 103.769531c-4.449219 45.070312-43.835938 78.496094-89.03125 75.554688-45.195313-2.941407-79.917969-41.183594-78.492188-86.453126 1.425781-45.265624 38.488281-81.25 83.777344-81.339843 2.785156 0 5.585937.136719 8.398437.414062 46.164063 4.554688 79.894532 45.664063 75.347657 91.828125zm0 0"/><path d="m236.5625 183.203125c-1.050781-3.503906-5.273438-4.753906-8.875-4.753906-3.394531 0-7.726562 1.246093-8.777344 4.753906l-19.308594 62.925781c-.113281.367188-.183593.742188-.214843 1.121094 0 3.65625 5.066406 5.902344 8.699219 5.902344 3.386718 0 4.527343-1.625 4.878906-2.972656l3.699218-12.949219h22.148438l3.691406 12.9375c.359375 1.359375 1.5 2.984375 4.886719 2.984375 3.546875 0 8.699219-2.300782 8.699219-5.902344-.011719-.300781-.066406-.597656-.15625-.886719zm-.835938 43.027344h-16.078124l8.039062-28.367188zm0 0"/><path d="m269.234375 179.050781c-4.25 0-7 1.765625-7 4.5v65c0 3.160157 3.628906 4.597657 7 4.597657 3.480469 0 7-1.578126 7-4.597657v-65c0-3.109375-3.515625-4.5-7-4.5zm0 0"/></g></svg>